<svg xmlns="http://www.w3.org/2000/svg" viewBox="-1 -1 127 88" xmlns:xlink="http://www.w3.org/1999/xlink" class="mission-top">
  <path class="bit-line" fill="none" stroke="#1D1D1B" stroke-width="2" d="M98.28 71.265l7.128 12.622c.65 1.123 2.085 1.506 3.206.857.356-.206.65-.5.857-.857l15.227-26.33c.638-1.128.242-2.56-.886-3.198-.34-.196-.724-.3-1.115-.307L92.34 54c-1.295.003-2.343 1.056-2.34 2.352 0 .403.106.8.305 1.15l3.187 5.403c.412.718 1.172 1.165 2 1.176l5.63.038" stroke-linecap="round" stroke-linejoin="round"/>
  <path class="bit-line" fill="none" stroke="#1D1D1B" stroke-width="2" d="M13.5 0C20.956 0 27 6.02 27 13.445c0 7.426-6.044 13.446-13.5 13.446S0 20.87 0 13.448C0 6.02 6.044 0 13.5 0z" stroke-linecap="round"/>
</svg>
