<svg xmlns="http://www.w3.org/2000/svg" viewBox="130 3624 1123 358" xmlns:xlink="http://www.w3.org/1999/xlink">
  <defs>
    <path id="a" d="M0 .17079832V14.9459244h17.600105V.17079832H0z"/>
    <path id="c" d="M9.9266371 14.9458992V.1707731H.04712192v14.7751261z"/>
    <path id="e" d="M13.7313045 16.0926015V.05310182H.07675203V16.0926015H13.7313045z"/>
  </defs>
  <g fill="none" fill-rule="evenodd" transform="translate(131 3625)">
    <g opacity=".29999998">
      <path stroke="#1D1D1B" stroke-width=".9125" d="M502.9731298 279.5463912s-5.5016139-3.0899118-11.7113354-1.5419118" stroke-linecap="round" stroke-linejoin="round"/>
      <path stroke="#1D1D1B" stroke-width=".9125" d="M470.979206 288.4921c-1.4437734-5.7965294-4.70558318-8.0256176-4.70558318-8.0256176" stroke-linecap="round" stroke-linejoin="round"/>
      <path fill="#79B9F7" d="M470.87091643 283.2395941c.67372592 0 1.22304744-.1212353 1.64822702-.3639706.42465468-.2427353.63750692-.5982353.63750692-1.0678235 0-.2586176-.06850115-.477-.20445364-.6551471-.1364774-.1778823-.33305734-.335647-.58947737-.4732941-.2566825-.1371176-.57766683-.2670882-.9624281-.3883235-.38502374-.1212353-.82647563-.2546471-1.32330584-.4002353-.54564713-.1455882-1.10336727-.3314118-1.67237303-.5582647-.5695307-.2263235-1.0910319-.5132647-1.5639785-.8616177-.4732092-.3475588-.8582329-.78432348-1.1548088-1.31029407-.2971008-.52544118-.4451263-1.16867647-.4451263-1.92917647 0-1.40744118.4968302-2.53985294 1.4915404-3.3975.99471024-.85711765 2.4219489-1.28594118 4.28302814-1.28594118 1.18682843 0 2.2413788.1215 3.1639135.3639706.92227227.24273528 1.74428607.56620587 2.46630407.97067646l-.7459015 3.17885294c-.7540376-.40420588-1.56397847-.72794117-2.43008503-.97067647-.86610656-.2427352-1.67630987-.3639705-2.43008504-.3639705-1.3156946 0-1.9731482.4288236-1.9731482 1.2862059 0 .2427353.0800492.4571471.2406726.6429706.16009846.186353.3850237.3480883.67346344.4857353.28896468.1371177.6256964.2665588 1.0107201.3877941.38502377.1215.8020672.2472353 1.2511303.3761471.57766686.1622647 1.1466726.3562941 1.7083296.58235298.5613945.22711766 1.0666233.5140588 1.5159489.8616177.4488007.3483529.8096784.776647 1.0826332 1.2862058.2726924.5098236.4091698 1.1284412.4091698 1.8563824 0 .7282059-.1364774 1.3918235-.4091698 1.9900588-.2729548.5987647-.6697891 1.1162647-1.1910277 1.5530294-.5212387.4370294-1.1629449.7766471-1.92485622 1.0193824-.7619113.2424706-1.64009086.3639706-2.6345387.3639706-1.1230515 0-2.19387413-.1297059-3.2122055-.3883236-1.01885623-.2588823-1.88102594-.5902941-2.5865091-.9950294l.72175548-3.2032059c.75377515.4047353 1.56765286.7401177 2.4424205 1.0069412.87398024.2670883 1.7763058.4005 2.7067142.4005"/>
      <path fill="#79B9F7" d="M486.7752837 280.3032647v5.7515294h-3.7292449v-5.7758823l-5.2454563-9.39123533h4.0662391l3.0914755 5.9937353 2.9962038-5.9937353h4.042093"/>
      <path fill="#79B9F7" d="M503.9306762 278.5072088c0-1.56070586-.3889606-2.70264704-1.1671442-3.42688233-.7781836-.7245-1.9529391-1.08635294-3.5247913-1.08635294h-1.5881244v8.95420587h1.7805051c1.3957438 0 2.4941244-.3615882 3.296454-1.0858235.8020672-.7242353 1.2031008-1.8420883 1.2031008-3.3551471m3.8497124-.1453235c0 1.1649706-.1887062 2.2206176-.5653314 3.1669412-.37715.9463235-.9264715 1.7555294-1.648227 2.4268235-.7220179.6712941-1.6162073 1.1887941-2.6828307 1.5530294-1.0668858.3639706-2.2899332.5460882-3.6694048.5460882h-5.3895449V270.88765h5.6543636c1.3311795 0 2.5101343.17814706 3.5368642.53364706 1.0264675.35629412 1.8925741.86161765 2.5985822 1.5167647.7057456.65541177 1.2429941 1.4402647 1.6122704 2.35402942.3687515.9142941.5532584 1.93764706.5532584 3.06979412"/>
      <path stroke="#1D1D1B" stroke-width=".9125" d="M481.6276449 288.4921c0-9.2985882-7.06821685-20.2505294-7.06821685-20.2505294s19.30656505 1.05035293 19.26562175 20.2505294" stroke-linecap="round" stroke-linejoin="round"/>
      <path stroke="#1D1D1B" stroke-width=".9125" d="M475.7154703 288.4921c0-8.0256176-4.73629055-16.0515-4.73629055-16.0515s3.58016956-.20964706 7.02806105 2.2505294" stroke-linecap="round" stroke-linejoin="round"/>
      <path stroke="#1D1D1B" stroke-width=".9125" d="M466.27370155 280.4663765s2.291508-1.995353 7.56740922-1.6890883" stroke-linecap="round" stroke-linejoin="round"/>
      <path stroke="#1D1D1B" stroke-width=".9125" d="M498.9647624 288.4921c1.1458852-4.8732353 4.0082361-8.9457353 4.0082361-8.9457353" stroke-linecap="round" stroke-linejoin="round"/>
    </g>
    <g opacity=".3">
      <path stroke="#1D1D1B" stroke-width=".977" d="M489.446424 349.0604706v5.7819328" stroke-linecap="round" stroke-linejoin="round"/>
      <path stroke="#1D1D1B" stroke-width=".977" d="M478.6070028 354.8157059v-18.36000002h12.3422931v3.29596642" stroke-linecap="round" stroke-linejoin="round"/>
      <path stroke="#1D1D1B" stroke-width=".977" d="M490.949371 347.579605v7.2360505" stroke-linecap="round" stroke-linejoin="round"/>
      <path stroke="#1D1D1B" stroke-width=".977" d="M500.7342669 339.3671429c0-1.77176475-1.4259202-3.20848744-3.1849222-3.20848744-1.7587518 0-3.1844218 1.4367227-3.1844218 3.20848744" stroke-linecap="round" stroke-linejoin="round"/>
      <path stroke="#1D1D1B" stroke-width=".977" d="M472.006929 339.3671429v15.47521" stroke-linecap="round" stroke-linejoin="round"/>
      <path stroke="#1D1D1B" stroke-width=".977" d="M475.1915009 339.3671429c0-1.77176475-1.42567-3.20848744-3.184672-3.20848744-1.75875173 0-3.18467197 1.4367227-3.18467197 3.20848744" stroke-linecap="round" stroke-linejoin="round"/>
      <path stroke="#1D1D1B" stroke-width=".977" d="M465.98798405 339.3671429h16.34477965l2.4454357-1.7594118 2.4451854 1.7594118h16.2967319" stroke-linecap="round" stroke-linejoin="round"/>
      <g transform="translate(465 337.442)">
        <mask id="b" fill="#fff">
          <use xlink:href="#a"/>
        </mask>
        <path fill="#F27959" d="M8.84688664 11.2579412L11.897425.17079832h5.2099392l.4927408 14.77512608h-3.5437797l-.07032-11.3947059-3.2149522 11.1579832H6.7818298L3.56687768 3.57466387 3.4730342 14.9459244H-.00017517L.51608903.17079832h5.28025923" mask="url(#b)"/>
      </g>
      <path fill="#F27959" d="M485.3221912 352.3874958v-14.77512605h10.7009083v3.02596635h-7.0637856v2.8131933h5.6791565v3.0259664h-5.6791565v2.8840336h7.0637856v3.0259664"/>
      <g transform="translate(498.533 337.442)">
        <mask id="d" fill="#fff">
          <use xlink:href="#c"/>
        </mask>
        <path fill="#F27959" d="M.04712193 14.9458992V.1707731H3.7783383v11.6309244h6.14837386v3.1442017" mask="url(#d)"/>
      </g>
      <path stroke="#1D1D1B" stroke-width=".977" d="M489.446424 336.45565546c0-2.59739496-2.0900817-4.70268907-4.6681495-4.70268907-2.5783181 0-4.6683998 2.1052941-4.6683998 4.702689" stroke-linecap="round" stroke-linejoin="round"/>
      <path stroke="#1D1D1B" stroke-width=".977" d="M480.1099748 354.8422773v-5.7819328c0-2.5971428 2.0900817-4.702689 4.6681495-4.702689 2.5783181 0 4.6683998 2.1055462 4.6683998 4.702689" stroke-linecap="round" stroke-linejoin="round"/>
      <path stroke="#1D1D1B" stroke-width=".977" d="M484.7781994 331.75289076v-2.50663866" stroke-linecap="round" stroke-linejoin="round"/>
      <path stroke="#1D1D1B" stroke-width=".977" d="M487.3346957 336.45565546c0-2.59739496-1.1443898-4.70268907-2.5565463-4.70268907-1.4119063 0-2.5565464 2.1052941-2.5565464 4.702689" stroke-linecap="round" stroke-linejoin="round"/>
      <path stroke="#1D1D1B" stroke-width=".977" d="M497.5494448 339.3671429v15.47521" stroke-linecap="round" stroke-linejoin="round"/>
      <path stroke="#1D1D1B" stroke-width=".977" d="M490.949371 347.579605v-10.56075626" stroke-linecap="round" stroke-linejoin="round"/>
    </g>
    <path stroke="#1D1D1B" stroke-width=".9885" d="M545.447269 26.4631456c-.2703856-3.1650733-1.8442439-10.9949619-7.3617161-15.0761697" stroke-linecap="round" stroke-linejoin="round"/>
    <path fill="#74DE7D" d="M525.8068883 13.5014747c0-1.6248779-1.027733-2.437991-3.0823957-2.437991h-1.6303448v5.0043541l1.6303448-.0256205c1.0526298-.0167207 1.8297876-.2394841 2.3309379-.6672113.5006149-.4274575.7514578-1.0520578.7514578-1.8735313m4.0249973-.102482c0 1.8821615-.6074306 3.3193356-1.8214887 4.3112527-1.2143257.9924566-2.9678164 1.4886848-5.260472 1.4886848l-1.55404788.0256205v4.6448583h-4.05042964V7.830179h5.88450062c1.1208955 0 2.1017794.13700214 2.9423841.41046706.8408724.2740043 1.5497645.65453586 2.1272118 1.14213406.5771795.4875982 1.0103319 1.07363298 1.2991893 1.75783468.2885898.6844714.4331524 1.4369044.4331524 2.2583779"/>
    <path fill="#74DE7D" d="M532.2772689 23.8694899V7.8299902h11.6166751v3.285085h-7.6679747v3.0536916h6.1647914v3.285085h-6.1647914v3.1305531h7.6679747v3.285085"/>
    <g transform="translate(546.593 7.777)">
      <mask id="f" fill="#fff">
        <use xlink:href="#e"/>
      </mask>
      <path fill="#74DE7D" d="M6.08894957 7.7778116c.866037-.06823138 1.52834784-.29072503 1.9869325-.66748094.45858467-.37594684.68774315-.94930623.68774315-1.7195388 0-1.4023842-1.00230063-2.10411568-3.00583106-2.10411568h-1.7069094v4.5423764l2.0380648-.05124097zm-1.9617679 8.3147899H.07675203V.05310182H6.4709696c2.12266072 0 3.7278409.45820207 4.8147374 1.37298808 1.0868965.91559507 1.6303448 2.1518507 1.6303448 3.70822747 0 1.07794802-.2760075 2.01484855-.8280224 2.8101622-.5517472.79558336-1.362904 1.39887826-2.43266716 1.80934533l4.07612966 6.3387766H9.17134527l-3.18439263-5.3892007-1.85977097.1539926v5.2352081z" mask="url(#f)"/>
    </g>
    <path stroke="#1D1D1B" stroke-width=".9885" d="M538.0855529 11.3868681s.2138991 13.8380262-5.1416095 19.0470744c0 0 7.8181591-.7171037 12.5033256-3.9709048" stroke-linecap="round" stroke-linejoin="round"/>
    <path stroke="#1D1D1B" d="M530.3970182 26.3635763h-17.90025017" stroke-linecap="square"/>
    <path stroke="#1D1D1B" d="M564.0976562 26.3635763h-18.521374" stroke-linecap="square"/>
    <path stroke="#1D1D1B" stroke-width=".9885" d="M537.9830741 14.5786406c-.4470732-1.0954778-1.36103-2.1569748-1.36103-2.1569748-.5054337 10.1600039-9.4661727 17.4898886-9.4661727 17.4898886 1.0949278-.2068517 4.5389977-.1011335 7.1306837-1.1194802" stroke-linecap="round" stroke-linejoin="round"/>
    <path stroke="#1D1D1B" stroke-width=".9885" d="M531.3496857 25.4383803L533.3623182.47027788l2.3595828 16.34236072" stroke-linecap="round" stroke-linejoin="round"/>
    <g stroke="#1D1D1B" stroke-linecap="round">
      <path d="M179.675805 161.0903467h-8.703221c-1.232293-.0023809-2.23118-1.0009524-2.233561-2.2328571v-24.84809527c.002381-1.23238095 1.001268-2.2304762 2.233561-2.23333333h10.194167c1.229912.0052381 2.224511 1.00380952 2.224511 2.23333333v3.8095238"/>
      <path d="M187.86896 131.77625148h7.959653c1.23277.00238095 2.231656 1.00095238 2.233562 2.23333333v24.8476191c-.001906 1.2323809-1.000792 2.2309523-2.233562 2.2333333h-10.193691c-1.233722.0052381-2.238801-.9904762-2.243564-2.2238095V155.04768"/>
      <path d="M19.2203946 147.5858705l9.8364354 9.8095238c.8707508.8738096.8678927 2.2876191-.0061925 3.1580953-.4182271.4166666-.9845962.6509524-1.5752586.6514285H2.2340855c-1.2322934 0-2.23165616-.9971428-2.23403787-2.2285714V133.762061c0-1.9904762 2.4055205-2.85714286 3.81072556-1.42857143l9.8173817 9.66190473" stroke-linejoin="round"/>
      <path d="M107.733927 161.1810134H97.2544319c-1.2337224-.0057143-2.2292745-1.01-2.2235584-2.2438095.001429-.3819048.1014606-.7571429.2896151-1.0895239l14.4283594-25.10952376c.617814-1.06761905 1.984436-1.43285714 3.052391-.8152381.338679.1957143.61972.47666667.815496.8152381l14.452176 25.09523806c.607811 1.0733334.230073 2.4361905-.844075 3.0433334-.332486.1885714-.707843.2880952-1.089868.29h-9.212429c-.794536-.0004762-1.529054-.4228572-1.92918-1.1095238l-3.296277-5.6" stroke-linejoin="round"/>
      <path d="M153.381703 147.5096324l9.798329 9.8047619c.87075.8738096.868369 2.2880953-.005717 3.1585715-.418703.4166666-.985072.6504762-1.575735.6509523h-25.217476c-1.233722 0-2.234038-1-2.234038-2.2338095v-25.05190474c.000953-1.23333334 1.001745-2.23285715 2.234991-2.23190476.591139 0 1.157508.2342857 1.575735.65095238l9.817382 9.66190472" stroke-linejoin="round"/>
      <path d="M45.8859467 131.77139433c8.1025552 0 14.6712934 6.56666667 14.6712934 14.66666667s-6.5687382 14.6666667-14.6712934 14.6666667-14.6712934-6.5666667-14.6712934-14.6666667c0-8.1 6.5687382-14.66666667 14.6712934-14.66666667z"/>
      <path d="M86.3939593 152.743061l2.9628391 2.9619048c.5825647.5742857.5892335 1.5119047.0147666 2.0942857-.0347729.0352381-.0714511.0690476-.1100347.1009524-2.568429 2.06-5.75753 3.1928571-9.0504732 3.2142857-8.1039842.0338095-14.7013028-6.5057143-14.7355994-14.6071429-.0342965-8.10142856 6.5077666-14.69666665 14.6117508-14.73095237 3.3091388-.0104762 6.5234858 1.10285715 9.1171609 3.15714286.6554448.5066666.775959 1.4485714.2691325 2.1042857-.0362019.0466666-.0752618.0914285-.1167035.1338095l-2.9485489 2.947619"/>
      <path d="M276.125031 148.0811562l6.787854 12.0138096c.617814 1.0680952 1.984436 1.4328571 3.052392.8152381.338678-.1957143.619719-.4766667.815495-.8152381l14.495524-25.0614286c.607334-1.07333334.230072-2.4361905-.844076-3.04380953-.323912-.18380953-.689265-.28333334-1.061287-.2895238l-28.900066-.05238097c-1.233723.00285715-2.231657 1.0052381-2.228322 2.23857143.000952.38380953.100508.76095238.290091 1.0947619l3.03429 5.14285715c.392982.68285714 1.116543 1.10809524 1.905363 1.11904762l5.358833.03285714" stroke-linejoin="round"/>
      <path d="M252.136799 131.80948957c8.102555 0 14.671293 6.56666667 14.671293 14.66666663 0 8.1-6.568738 14.6666667-14.671293 14.6666667-8.103031 0-14.67177-6.5666667-14.67177-14.6666667 0-8.09999996 6.568739-14.66666663 14.67177-14.66666663z"/>
      <path d="M265.750664 140.606061h-6.797858" stroke-linejoin="round"/>
      <path d="M245.167982 150.606061h-6.793094" stroke-linejoin="round"/>
      <path d="M45 144.609442v3.6714285" stroke-linejoin="round"/>
      <path d="M218.059386 131.92391814c8.102555 0 14.671293 6.56666667 14.671293 14.66666666 0 8.1-6.568738 14.6666667-14.671293 14.6666667-8.103032 0-14.671294-6.5666667-14.671294-14.6666667 0-8.1 6.568262-14.66666666 14.671294-14.66666666z"/>
      <path d="M218 144.6143467v3.6714286" stroke-linejoin="round"/>
    </g>
    <path stroke="#1D1D1B" d="M737.3206738 251.717934V247.1715c0-.9884623.8165573-1.790066 1.823459-1.790066 1.0069016 0 1.823459.8016037 1.823459 1.790066v4.546434" stroke-linecap="round" stroke-linejoin="round"/>
    <path stroke="#1D1D1B" d="M763.7664033 243.6346154h-14.7866558" stroke-linecap="round" stroke-linejoin="round"/>
    <path stroke="#1D1D1B" d="M722.1966377 243.6346154h-9.1967213" stroke-linecap="round" stroke-linejoin="round"/>
    <path fill="#EFB348" d="M719.8503869 245.8807538h3.2804426c.2814754 0 .5662951-.030368.8552951-.0919246.289-.061283.5506885-.1685283.7853443-.322283.2340983-.1529339.4252786-.3526509.574377-.597783.1479836-.2454057.2226721-.5441604.2226721-.8973585 0-.3832924-.0980983-.6938113-.293459-.9318302-.1953606-.2374717-.4414426-.4174905-.7382459-.5403302-.2965246-.1228396-.6170164-.2071037-.9606393-.253066-.3439017-.0462358-.66411478-.069217-.96063937-.069217h-2.76514754v3.7037925zm0-6.7405849h2.64809835c.28091803 0 .55849175-.030368.83160655-.0919246.2733934-.0610094.5194754-.1608679.7382459-.2987547.2187705-.1381604.394623-.322283.5272787-.5523679.132377-.2300849.1992623-.5061321.1992623-.8281415 0-.3373302-.0744098-.6172076-.2226721-.8399057-.148541-.2218773-.3394427-.3945094-.5740984-.517349-.2346557-.1225661-.5002459-.2106604-.7970492-.2645566-.29652457-.0536227-.58552457-.080434-.86699998-.080434h-2.48367213v3.473434zm-3.6555574-6.51022645h6.1860492c.718459 0 1.441377.05006604 2.167918.14937736.7262623.1001321 1.3783935.2993019 1.9569508.5983302.5774427.2990283 1.0461968.717066 1.4059836 1.2538396.3592296.5370472.538705 1.2500095.538705 2.139434 0 .920066-.2616886 1.6830943-.7847869 2.2888113-.5236558.6059906-1.2148033 1.0393491-2.0737213 1.2998019v.0459623c.5462295.0771509 1.0422951.2265283 1.4873606.4486792.4453443.2224245.8279836.5064057 1.1487541.8511226.3199344.3452642.5660164.7479812.7379672 1.2078774.1719509.4601698.2580656.9512547.2580656 1.4721604 0 .8593302-.1878361 1.5761226-.5629508 2.1509245-.3745574.5753491-.858918 1.0393491-1.4528033 1.3917264-.5938852.3531981-1.2616229.6062642-2.0034918.7594717-.7418688.1532076-1.4806721.2300849-2.21418032.2300849h-6.79581967v-16.2876037z"/>
    <path fill="#EFB348" d="M731.3800377 232.6300519h4.9679016l7.0533279 11.3182075h.0473771v-11.3182075h3.6555573v16.2873302h-4.7806229l-7.2411639-11.5945283h-.0468197v11.5945283h-3.6555574"/>
    <path fill="#EFB348" d="M750.6187984 232.6300519h11.2715573v3.312566h-7.616v3.0367925H761.4687v3.312566h-7.1943443v3.3128396h8.0379345v3.3125661h-11.6934918"/>
    <path stroke="#1D1D1B" d="M748.979859 251.717934v-9.3579717l-9.7605082-3.5965472-9.7607869 3.5965472v9.3579717" stroke-linecap="round" stroke-linejoin="round"/>
    <path stroke="#1D1D1B" d="M742.0254377 239.7609057v-12.3835472L739.219323 223l-2.8061148 4.3773585v12.3835472" stroke-linecap="round" stroke-linejoin="round"/>
    <path stroke="#1D1D1B" d="M740.7090246 231.51727264c0-.80762264-.6671803-1.4625849-1.4898689-1.4625849-.8226885 0-1.4895901.65496226-1.4895901 1.4625849s.6669016 1.4625849 1.4895901 1.4625849c.8226886 0 1.4898689-.65496226 1.4898689-1.4625849z" stroke-linecap="round" stroke-linejoin="round"/>
    <path stroke="#1D1D1B" d="M736.4854164 227.46153846h5.5121803" stroke-linecap="round" stroke-linejoin="round"/>
    <path stroke="#1D1D1B" d="M731.8165754 251.717934V247.1715c0-.9884623.8162787-1.790066 1.823459-1.790066 1.0069017 0 1.8231804.8016037 1.8231804 1.790066v4.546434" stroke-linecap="round" stroke-linejoin="round"/>
    <path stroke="#1D1D1B" d="M742.0254377 238.7774226h4.1675082v2.4223208" stroke-linecap="round" stroke-linejoin="round"/>
    <path stroke="#1D1D1B" d="M736.3858131 238.7774226h-4.1677869v2.4223208" stroke-linecap="round" stroke-linejoin="round"/>
    <path stroke="#1D1D1B" d="M748.979859 244.0014717l-9.7605082-3.5965472-9.7607869 3.5965472" stroke-linecap="round" stroke-linejoin="round"/>
    <path stroke="#1D1D1B" d="M742.8250508 251.717934V247.1715c0-.9884623.8162787-1.790066 1.8231803-1.790066 1.0069017 0 1.8234591.8016037 1.8234591 1.790066v4.546434" stroke-linecap="round" stroke-linejoin="round"/>
    <path stroke="#1D1D1B" d="M729.4585918 243.6346154h-7.26206557" stroke-linecap="round" stroke-linejoin="round"/>
    <ellipse cx="369.235294" cy="148.606061" fill="#79B9F6" rx="19.7647059" ry="19.3939394"/>
    <ellipse cx="365.764706" cy="145.393939" stroke="#000" rx="19.7647059" ry="19.3939394"/>
    <ellipse cx="569.235294" cy="148.606061" fill="#79B9F6" rx="19.7647059" ry="19.3939394"/>
    <ellipse cx="565.764706" cy="145.393939" stroke="#000" rx="19.7647059" ry="19.3939394"/>
    <ellipse cx="769.235294" cy="148.606061" fill="#79B9F6" rx="19.7647059" ry="19.3939394"/>
    <ellipse cx="765.764706" cy="145.393939" stroke="#000" rx="19.7647059" ry="19.3939394"/>
    <ellipse cx="869.235294" cy="148.606061" fill="#79B9F6" rx="19.7647059" ry="19.3939394"/>
    <ellipse cx="865.764706" cy="145.393939" stroke="#000" rx="19.7647059" ry="19.3939394"/>
    <path stroke="#000" d="M386.5 144.5h158" stroke-linecap="square"/>
    <path stroke="#000" d="M745.5 144.5h-159" stroke-linecap="square"/>
    <path stroke="#000" d="M844.5 143.5h-58" stroke-linecap="square"/>
    <path stroke="#000" d="M385 145.070312c54.929688 0 30.1875-119.4726557 77.21875-119.4726558"/>
    <path stroke="#000" d="M462 289c-54.062728 0-29.711048-144-76-144"/>
    <path stroke="#000" d="M462 354c-54.062728 0-29.711048-209-76-209"/>
    <path stroke="#000" d="M711.5 252.5h53.009433" stroke-linecap="square"/>
    <path stroke="#000" d="M461.5 289.5h53.009433" stroke-linecap="square"/>
    <path stroke="#000" d="M461.5 354.5h53.009433" stroke-linecap="square"/>
    <ellipse cx="987.764706" cy="254.393939" fill="#C980EA" rx="19.7647059" ry="19.3939394"/>
    <ellipse cx="984.764706" cy="251.393939" stroke="#000" rx="19.7647059" ry="19.3939394"/>
    <ellipse cx="685.764706" cy="254.393939" fill="#EFB348" rx="19.7647059" ry="19.3939394"/>
    <ellipse cx="682.764706" cy="251.393939" stroke="#000" rx="19.7647059" ry="19.3939394"/>
    <ellipse cx="484.983456" cy="28.5976562" fill="#74DE7D" rx="19.7647059" ry="19.3939394"/>
    <ellipse cx="481.983456" cy="25.5976562" stroke="#000" rx="19.7647059" ry="19.3939394"/>
    <path stroke="#000" d="M964 254c-54.062728 0-29.711048-110-76-110"/>
    <path stroke="#000" d="M663 255c-54.062728 0-29.711048-110-76-110"/>
    <path fill="#272727" d="M1028.03 253.315939c0 .672004-.10967 1.280998-.329 1.827-.21933.546003-.539 1.012665-.959 1.4-.42.387336-.94033.685999-1.561.896-.62067.210001-1.33233.315-2.135.315h-3.136v-8.75h3.29c.77467 0 1.46066.102666 2.058.308.59734.205335 1.10133.496999 1.512.875.41067.378002.72333.830664.938 1.358.21467.527336.322 1.117664.322 1.771zm-2.24.084c0-.905337-.22633-1.567998-.679-1.988s-1.13633-.63-2.051-.63h-.924v5.194h1.036c.812 0 1.45133-.209998 1.918-.63.46667-.420002.7-1.068662.7-1.946zm5.194 4.354v-8.75h6.398v1.792h-4.214v1.68h3.388v1.778h-3.388v1.708h4.214v1.792h-6.398zm16.422-5.712c0 1.026672-.33366 1.810664-1.001 2.352-.66734.541336-1.63099.812-2.891.812l-.854.014v2.534h-2.226v-8.75h3.234c.616 0 1.155.074666 1.617.224.462.149334.85167.356999 1.169.623.31733.266002.55533.585665.714.959.15867.373336.238.783998.238 1.232zm-2.212.056c0-.886671-.56466-1.33-1.694-1.33h-.896v2.73l.896-.014c.57867-.009333 1.00567-.130665 1.281-.364.27533-.233334.413-.573997.413-1.022zm5.096 5.656v-8.75h2.226v6.888h3.668v1.862h-5.894zm17.052-4.41c0 .690671-.11667 1.320664-.35 1.89-.23333.569337-.55766 1.056998-.973 1.463-.41534.406002-.903.718666-1.463.938-.56.219335-1.16666.329-1.82.329-.644 0-1.246-.100332-1.806-.301-.56-.200667-1.043-.492331-1.449-.875-.406-.382668-.72567-.858663-.959-1.428-.23333-.569336-.35-1.222663-.35-1.96 0-.69067.11667-1.320663.35-1.89.23333-.569336.55533-1.054664.966-1.456.41067-.401335.896-.711665 1.456-.931.56-.219334 1.16666-.329 1.82-.329s1.25766.097999 1.813.294c.55534.196001 1.03833.487665 1.449.875.41067.387336.73267.863331.966 1.428.23333.56467.35 1.215663.35 1.953zm-2.24.056c0-.420002-.05367-.802665-.161-1.148-.10733-.345335-.26133-.641665-.462-.889-.20067-.247334-.448-.438666-.742-.574-.294-.135334-.62766-.203-1.001-.203-.74667 0-1.32066.254331-1.722.763-.40134.50867-.602 1.173663-.602 1.995 0 .420002.05367.802665.161 1.148.10733.345335.26133.643999.462.896.20067.252002.448.445666.742.581.294.135334.62766.203 1.001.203.364 0 .69067-.067666.98-.203s.53433-.324332.735-.567c.20067-.242667.35233-.534331.455-.875.10267-.340668.154-.716331.154-1.127zm9.156 1.036v3.318h-2.184v-3.332l-3.052-5.418h2.366l1.806 3.458 1.75-3.458h2.352l-3.038 5.432zm13.692-3.43l-1.918 6.608h-2.38l-1.918-6.594-.056 6.734h-2.072l.308-8.75h3.15l1.82 6.566 1.82-6.566h3.108l.294 8.75h-2.114l-.042-6.748zm5.32 6.748v-8.75h6.398v1.792h-4.214v1.68h3.388v1.778h-3.388v1.708h4.214v1.792h-6.398zm15.498-8.75h2.086v8.834h-2.366l-3.682-5.754v5.67h-2.086v-8.75h2.408l3.64 5.684v-5.684zm9.856 1.862v6.888h-2.226v-6.888h-2.786v-1.862h7.798v1.862h-2.786z"/>
  </g>
</svg>
