<svg xmlns="http://www.w3.org/2000/svg" viewBox="143 98 759 41">
  <g fill="none" fill-rule="evenodd" stroke="#1D1D1B" stroke-width="1.2" stroke-linecap="round">
    <path d="M370.085 137.355h-10.953c-1.546 0-2.81-1.273-2.81-2.83v-31.472c0-1.556 1.264-2.83 2.81-2.83h12.827c1.55 0 2.81 1.268 2.81 2.83v4.812m5.62-7.64h10.01c1.54 0 2.81 1.272 2.81 2.83v31.47c0 1.557-1.27 2.83-2.81 2.83h-12.82c-1.56 0-2.81-1.267-2.81-2.83v-4.81"/>
    <path d="M168.182 120.247l12.35 12.428c1.77 1.783.517 4.83-1.987 4.83H146.81c-1.552 0-2.81-1.267-2.81-2.83V102.74c0-2.52 3.027-3.593 4.798-1.812l12.35 12.24m118.41 24.302h-13.21c-2.163 0-3.516-2.358-2.434-4.243l18.183-31.788c1.082-1.89 3.786-1.89 4.868 0l18.183 31.78c1.082 1.88-.27 4.24-2.434 4.24H291.12c-1 0-1.924-.54-2.43-1.41l-4.144-7.14m52.43-8.77l12.35 12.43c1.77 1.78.517 4.83-1.987 4.83H315.6c-1.552 0-2.81-1.27-2.81-2.83v-31.74c0-2.52 3.027-3.785 4.798-2l12.35 12.24" stroke-linejoin="round"/>
    <path d="M220.2 118.794c0-10.26-8.265-18.58-18.46-18.58-10.197 0-18.463 8.32-18.463 18.58 0 10.262 8.266 18.58 18.462 18.58 10.19 0 18.46-8.318 18.46-18.58zm32.505 7.99l3.725 3.75c.778.78.74 2.09-.12 2.78-3.122 2.517-7.075 4.034-11.378 4.07-9.763.08-18.076-7.76-18.59-17.57-.563-10.72 7.907-19.59 18.435-19.59 4.332 0 8.315 1.5 11.465 4.016.89.71.994 2.03.19 2.838l-3.708 3.73"/>
    <path d="M491.44 120.878l8.542 15.217c1.08 1.888 3.783 1.892 4.87.01l18.238-31.757c1.085-1.883-.263-4.243-2.427-4.247l-36.365-.06c-2.164 0-3.52 2.35-2.442 4.24l3.82 6.52c.5.88 1.42 1.42 2.42 1.42l6.744.04" stroke-linejoin="round"/>
    <path d="M479.72 118.845c0-10.26-8.267-18.58-18.463-18.58-10.196 0-18.462 8.32-18.462 18.58 0 10.26 8.266 18.58 18.462 18.58s18.463-8.32 18.463-18.58z"/>
    <path d="M478.385 112.39h-8.55M452.49 125.3h-8.55m-242.2-8.822v4.653" stroke-linejoin="round"/>
    <path d="M436.843 118.988c0-10.26-8.266-18.58-18.463-18.58-10.196 0-18.462 8.32-18.462 18.58 0 10.26 8.266 18.58 18.462 18.58 10.197 0 18.463-8.32 18.463-18.58z"/>
    <path d="M418.38 116.483v4.653" stroke-linejoin="round"/>
  </g>
  <path fill="#1D1D1B" fill-rule="evenodd" d="M572.41 117.614c0 2.784-.454 5.307-1.363 7.57-.91 2.26-2.233 4.194-3.973 5.8-1.74 1.604-3.896 2.84-6.467 3.71-2.57.87-5.52 1.306-8.845 1.306H538.77V99.75h13.63c3.21 0 6.05.425 8.526 1.276 2.475.85 4.563 2.06 6.264 3.625 1.7 1.57 2.997 3.45 3.886 5.63.89 2.19 1.334 4.63 1.334 7.34zm-9.28.348c0-3.75-.938-6.496-2.813-8.236-1.875-1.74-4.708-2.61-8.497-2.61h-3.828v21.518h4.292c3.364 0 6.013-.87 7.946-2.61 1.933-1.74 2.9-4.427 2.9-8.062zM578.09 136V99.75h26.506v7.424h-17.458v6.96h14.036v7.366h-14.036v7.076h17.458V136H578.09zm61.475-23.664c0 4.253-1.382 7.5-4.147 9.744-2.765 2.243-6.757 3.364-11.977 3.364l-3.53.058V136h-9.22V99.75h13.4c2.55 0 4.79.31 6.7.928 1.92.62 3.53 1.48 4.85 2.58 1.316 1.103 2.3 2.427 2.96 3.974.656 1.547.985 3.248.985 5.104zm-9.164.232c0-3.673-2.33-5.51-7.01-5.51h-3.71v11.31l3.72-.058c2.398-.04 4.167-.54 5.308-1.508 1.14-.967 1.71-2.378 1.71-4.234zM644.96 136V99.75h9.222v28.536h15.195V136H644.96zm64.085-18.27c0 2.86-.482 5.47-1.45 7.83-.966 2.36-2.31 4.38-4.03 6.06-1.72 1.683-3.74 2.978-6.06 3.887-2.32.91-4.834 1.363-7.54 1.363-2.67 0-5.163-.416-7.483-1.247-2.32-.83-4.32-2.04-6.004-3.625-1.682-1.585-3.006-3.557-3.973-5.916-.966-2.36-1.45-5.065-1.45-8.12 0-2.86.484-5.47 1.45-7.83.968-2.36 2.3-4.37 4.003-6.032 1.7-1.663 3.712-2.948 6.032-3.857 2.32-.91 4.833-1.363 7.54-1.363s5.21.406 7.51 1.218c2.302.812 4.303 2.02 6.004 3.625 1.7 1.605 3.034 3.577 4 5.916.968 2.33 1.45 5.03 1.45 8.09zm-9.28.232c0-1.74-.22-3.325-.666-4.756-.45-1.43-1.09-2.658-1.92-3.683-.83-1.025-1.86-1.817-3.08-2.378-1.22-.56-2.6-.84-4.15-.84-3.094 0-5.47 1.053-7.135 3.16-1.664 2.107-2.495 4.862-2.495 8.265 0 1.74.223 3.325.668 4.756.442 1.43 1.08 2.668 1.91 3.712.833 1.044 1.858 1.846 3.076 2.407 1.217.56 2.6.84 4.146.84 1.51 0 2.86-.28 4.06-.84 1.2-.56 2.215-1.344 3.046-2.35.83-1.004 1.46-2.213 1.885-3.624.424-1.41.637-2.96.637-4.66zm31.375 4.292V136h-9.048v-13.804L709.44 99.75h9.802l7.482 14.326 7.25-14.326h9.744l-12.586 22.504zm50.165-14.21l-7.947 27.376h-9.86l-7.946-27.318L755.32 136h-8.585l1.278-36.25h13.05l7.54 27.202 7.54-27.202h12.878l1.21 36.25h-8.75l-.17-27.956zM796.78 136V99.75h26.507v7.424H805.83v6.96h14.035v7.366H805.83v7.076h17.457V136H796.78zm57.648-36.25h8.642v36.598h-9.802l-15.254-23.838V136h-8.642V99.75h9.976l15.08 23.548V99.75zm34.274 7.714V136h-9.222v-28.536h-11.542V99.75h32.306v7.714h-11.542z"/>
</svg>
