<svg xmlns="http://www.w3.org/2000/svg" viewBox="516 3 82 58" xmlns:xlink="http://www.w3.org/1999/xlink">
  <defs>
    <path id="a" d="M25.672 30.086V.1H.142v29.986h25.53z"/>
  </defs>
  <g fill="none" fill-rule="evenodd">
    <g fill="#FFF">
      <path d="M555.725 23.908s.4 25.87-9.612 35.61c0 0 14.616-1.34 23.375-7.424"/>
      <path d="M555.534 29.875c-.836-2.048-2.545-4.033-2.545-4.033-.95 18.995-17.7 32.7-17.7 32.7 2.04-.388 8.48-.19 13.33-2.094"/>
      <path d="M543.132 50.178l3.763-46.68 4.41 30.553m18.183 18.05c-.505-5.916-3.448-20.554-13.763-28.184"/>
    </g>
    <path stroke="#1D1D1B" stroke-width=".989" d="M569.488 52.094c-.505-5.918-3.448-20.556-13.763-28.186" stroke-linecap="round" stroke-linejoin="round"/>
    <path fill="#74DE7D" d="M532.77 27.86c0-3.037-1.922-4.557-5.763-4.557h-3.048v9.356l3.04-.05c1.97-.03 3.42-.45 4.36-1.25.933-.8 1.402-1.97 1.402-3.507m7.524-.19c0 3.517-1.136 6.204-3.406 8.06-2.27 1.854-5.55 2.782-9.835 2.782l-2.905.047v8.686h-7.573V17.26h11.002c2.092 0 3.93.256 5.5.768 1.57.512 2.895 1.223 3.975 2.135 1.08.917 1.89 2.01 2.43 3.29.54 1.28.81 2.69.81 4.22m4.575 19.58V17.26h21.72v6.14h-14.33v5.71h11.523v6.142H552.25v5.854h14.334v6.142"/>
    <g transform="translate(571.63 17.158)">
      <mask id="b" fill="#fff">
        <use xlink:href="#a"/>
      </mask>
      <path fill="#74DE7D" d="M11.384 14.54c1.62-.126 2.857-.542 3.714-1.247.858-.703 1.286-1.775 1.286-3.215 0-2.62-1.874-3.933-5.62-3.933h-3.19v8.492l3.81-.096zM7.716 30.087H.143V.1h11.955c3.968 0 6.97.856 9 2.566 2.033 1.712 3.05 4.023 3.05 6.933 0 2.01-.517 3.76-1.55 5.25-1.03 1.482-2.547 2.61-4.547 3.38l7.63 11.85h-8.53l-5.956-10.07-3.477.29v9.782z" mask="url(#b)"/>
    </g>
    <path stroke="#1D1D1B" stroke-width=".989" d="M555.725 23.908s.4 25.87-9.612 35.61c0 0 14.616-1.34 23.375-7.424" stroke-linecap="round" stroke-linejoin="round"/>
    <path stroke="#1D1D1B" stroke-width=".989" d="M555.534 29.875c-.836-2.048-2.545-4.033-2.545-4.033-.95 18.995-17.7 32.7-17.7 32.7 2.04-.388 8.48-.19 13.33-2.094" stroke-linecap="round" stroke-linejoin="round"/>
    <path stroke="#1D1D1B" stroke-width=".989" d="M543.132 50.178l3.763-46.68 4.41 30.553" stroke-linecap="round" stroke-linejoin="round"/>
  </g>
</svg>
