<svg xmlns="http://www.w3.org/2000/svg" viewBox="-2 -1 77 76">
  <g fill="none" fill-rule="evenodd" stroke="#1D1D1B" stroke-width="2" stroke-linecap="round" stroke-linejoin="round">
    <path class="bit-line" d="M8.28 59.27L15.4 71.9c.66 1.1 2.1 1.5 3.2.84.37-.2.67-.5.87-.85L34.7 45.55c.63-1.13.24-2.56-.9-3.2-.33-.2-.72-.3-1.1-.3L2.33 42C1.04 42 0 43.06 0 44.35c0 .4.1.8.3 1.15l3.2 5.4c.4.72 1.16 1.17 2 1.18l5.62.04"/>
    <path class="bit-line" d="M47.28 17.27L54.4 29.9c.66 1.1 2.1 1.5 3.2.84.37-.2.67-.5.87-.85L73.7 3.55c.63-1.13.24-2.56-.9-3.2-.33-.2-.72-.3-1.1-.3L41.33 0C40.04 0 39 1.06 39 2.35c0 .4.1.8.3 1.15l3.2 5.4c.4.72 1.16 1.17 2 1.18l5.62.04"/>
  </g>
</svg>
