<svg xmlns="http://www.w3.org/2000/svg" viewBox="0 -1 77 62">
  <g fill="none" fill-rule="evenodd">
    <path fill="#74DE7D" d="M10.35 37.6l5.3 5.28c.47.47.47 1.24 0 1.7-.23.23-.53.36-.85.36H1.2c-.66 0-1.2-.54-1.2-1.2v-13.6c0-1.06 1.3-1.53 2.05-.76l5.3 5.2"/>
    <path stroke="#1D1D1B" stroke-width="2" d="M11.35 35.6l5.3 5.28c.47.47.47 1.24 0 1.7-.23.23-.53.36-.85.36H2.2c-.66 0-1.2-.54-1.2-1.2v-13.6c0-1.06 1.3-1.53 2.05-.76l5.3 5.2" stroke-linecap="round" stroke-linejoin="round"/>
    <path fill="#C980EA" d="M59.26 53.9l3.68 6.5c.33.57 1.07.77 1.65.44.17-.1.32-.26.43-.44l7.84-13.57c.33-.58.13-1.32-.45-1.64-.18-.1-.38-.17-.58-.17L56.2 45c-.66 0-1.2.54-1.2 1.2 0 .22.05.42.16.6l1.64 2.8c.2.36.6.6 1.03.6h2.9"/>
    <path stroke="#1D1D1B" stroke-width="2" d="M61.26 51.9l3.68 6.5c.33.57 1.07.77 1.65.44.17-.1.32-.26.43-.44l7.84-13.57c.33-.58.13-1.32-.45-1.64-.18-.1-.38-.17-.58-.17L58.2 43c-.66 0-1.2.54-1.2 1.2 0 .22.05.42.16.6l1.64 2.8c.2.36.6.6 1.03.6h2.9" stroke-linecap="round" stroke-linejoin="round"/>
    <g>
      <path fill="#79B9F6" d="M28 2c4.42 0 8 3.57 8 7.97s-3.58 7.97-8 7.97-8-3.57-8-7.97S23.58 2 28 2z"/>
      <path stroke="#1D1D1B" stroke-width="2" d="M30 0c4.42 0 8 3.57 8 7.97s-3.58 7.97-8 7.97-8-3.57-8-7.97S25.58 0 30 0z" stroke-linecap="round"/>
    </g>
  </g>
</svg>
