<svg xmlns="http://www.w3.org/2000/svg" viewBox="1201 1406 82 105">
  <g fill="none" fill-rule="evenodd">
    <path fill="#74DE7D" d="M1271.48 1417.35l2.18-7.16c.2-.65.87-1 1.5-.8.3.08.56.3.7.58l6.4 12c.3.58.08 1.3-.5 1.62l-12 6.38c-.94.5-1.96-.42-1.64-1.45l2.1-7.1"/>
    <path stroke="#1D1D1B" stroke-width="2" d="M1269.24 1417.4l2.18-7.16c.2-.63.87-1 1.5-.8.3.1.57.3.7.6l6.4 12c.3.58.1 1.3-.5 1.62l-12 6.38c-.94.5-1.96-.42-1.64-1.45l2.12-7.13" stroke-linecap="round" stroke-linejoin="round"/>
  </g>
  <g fill="none" fill-rule="evenodd">
    <path fill="#C980EA" d="M1220.48 1457.1l4-6.28c.37-.57.2-1.3-.37-1.67-.17-.1-.38-.17-.6-.18l-15.65-.56c-.67 0-1.22.52-1.24 1.2 0 .2.05.4.14.57l7.32 13.82c.3.58 1.05.8 1.63.48.18-.1.33-.24.44-.4l1.7-2.77c.22-.35.24-.8.04-1.18l-1.34-2.57"/>
    <path stroke="#1D1D1B" stroke-width="2" d="M1217.77 1456.3l4.02-6.3c.34-.58.17-1.32-.4-1.68-.18-.1-.38-.17-.6-.18l-15.65-.55c-.67-.03-1.23.5-1.24 1.16 0 .2.05.4.14.58l7.3 13.82c.33.6 1.06.8 1.65.5.17-.1.33-.24.44-.42l1.7-2.76c.2-.36.23-.8.04-1.2l-1.35-2.56" stroke-linecap="round" stroke-linejoin="round"/>
  </g>
  <g fill="none" fill-rule="evenodd">
    <path fill="#79B9F6" d="M1248.74 1490.54c3.9-2.07 8.72-.58 10.8 3.32 2.06 3.9.6 8.74-3.3 10.8-3.87 2.07-8.7.58-10.78-3.32-2.07-3.9-.6-8.74 3.28-10.8z"/>
    <path stroke="#1D1D1B" stroke-width="2" d="M1242.76 1500.5c-2.08-3.9-.6-8.72 3.28-10.8 3.88-2.06 8.7-.57 10.8 3.33 2.06 3.9.6 8.74-3.3 10.8-3.88 2.07-8.7.6-10.78-3.32z" stroke-linecap="round"/>
  </g>
</svg>
