<svg xmlns="http://www.w3.org/2000/svg" viewBox="1256 1406 27 27">
  <g fill="none" fill-rule="evenodd">
    <path fill="#74DE7D" d="M1271.48 1417.35l2.18-7.16c.2-.65.87-1 1.5-.8.3.08.56.3.7.58l6.4 12c.3.58.08 1.3-.5 1.62l-12 6.38c-.94.5-1.96-.42-1.64-1.45l2.1-7.1"/>
    <path stroke="#1D1D1B" stroke-width="2" d="M1269.24 1417.4l2.18-7.16c.2-.63.87-1 1.5-.8.3.1.57.3.7.6l6.4 12c.3.58.1 1.3-.5 1.62l-12 6.38c-.94.5-1.96-.42-1.64-1.45l2.12-7.13" stroke-linecap="round" stroke-linejoin="round"/>
  </g>
</svg>
