<svg xmlns="http://www.w3.org/2000/svg" viewBox="1201 1437 29 30">
  <g fill="none" fill-rule="evenodd">
    <path fill="#C980EA" d="M1220.48 1457.1l4-6.28c.37-.57.2-1.3-.37-1.67-.17-.1-.38-.17-.6-.18l-15.65-.56c-.67 0-1.22.52-1.24 1.2 0 .2.05.4.14.57l7.32 13.82c.3.58 1.05.8 1.63.48.18-.1.33-.24.44-.4l1.7-2.77c.22-.35.24-.8.04-1.18l-1.34-2.57"/>
    <path stroke="#1D1D1B" stroke-width="2" d="M1217.77 1456.3l4.02-6.3c.34-.58.17-1.32-.4-1.68-.18-.1-.38-.17-.6-.18l-15.65-.55c-.67-.03-1.23.5-1.24 1.16 0 .2.05.4.14.58l7.3 13.82c.33.6 1.06.8 1.65.5.17-.1.33-.24.44-.42l1.7-2.76c.2-.36.23-.8.04-1.2l-1.35-2.56" stroke-linecap="round" stroke-linejoin="round"/>
  </g>
</svg>
