<svg xmlns="http://www.w3.org/2000/svg" viewBox="248 249 464 382">
  <g fill="none" fill-rule="evenodd">
    <path fill="#E7E7E7" d="M562.087 592.07c-8.73-6.983-17-18-30-25s-18-21-16-24c6-9 1.5-28.5-.5-17.5s-6 14-6 14c-10-2-13.458-15.935-25-22-59-31-115 11-115 11l-6 3c-13 8-16.845 14.857-22.623 21.965-5.098 6.27-7.895 13.61-17.045 14.305-16.51 1.252-24.99-13.63-27.34-28.27l-10-31c-12.48-15.354-26.56-37.932-26.67-58.272-.05-7.635 1.93-15.188 4.98-22.187 7.4-16.99 20.28-24.68 33.1-36.72 12.9-12.11 21.95-23.94 27.58-40.81 9-27 42.5-50.5 42.5-50.5s3-2 11 0 21 11 27 3 28.5-28.5 32.5-35.5c5.99-10.49 54.5-.5 54.5-.5s-23 29-6 39 42 23 42 23 15 8 19-10 7-70 7-70 10.95-2.61 17 24c5 22 26 33 26 33s1 30 14 43c19.52 19.53 42.33 37.32 55.69 62.01 7.06 13.05 9.53 26.31 10.31 40.96.8 14.94 1.97 32-4.73 45.93l-8.19 14.99-1.59 2.63s-17 18-25 41c-11.04 31.74-29.5 36.5-37.5 39.5 0 0-29 4-39-4"/>
    <path stroke="#1D1D1B" stroke-width=".69" d="M690.24 500.16s-7.928-4.416-16.875-2.204m-29.227 14.984c-2.08-8.283-6.78-11.467-6.78-11.467" stroke-linecap="round" stroke-linejoin="round"/>
    <path fill="#79B9F7" d="M643.983 505.435c.97 0 1.762-.173 2.375-.52.61-.347.918-.855.918-1.526 0-.37-.1-.69-.294-.94-.197-.26-.48-.48-.85-.68-.37-.2-.832-.38-1.386-.56-.555-.18-1.192-.37-1.908-.58-.786-.21-1.59-.48-2.41-.8-.82-.33-1.57-.74-2.253-1.23-.682-.5-1.237-1.13-1.664-1.88-.42-.75-.64-1.67-.64-2.76 0-2.02.72-3.63 2.15-4.86 1.44-1.228 3.49-1.84 6.17-1.84 1.71 0 3.23.17 4.56.52 1.33.343 2.52.81 3.56 1.383l-1.07 4.54c-1.08-.578-2.25-1.04-3.5-1.387-1.24-.35-2.41-.52-3.5-.52-1.89 0-2.84.61-2.84 1.84 0 .345.12.65.35.917.23.265.56.497.97.69.42.2.9.38 1.46.558.56.17 1.16.35 1.81.536.83.23 1.65.51 2.46.83.81.328 1.54.738 2.19 1.23.648.5 1.168 1.11 1.56 1.84.39.73.59 1.61.59 2.65s-.2 1.99-.59 2.848c-.392.853-.964 1.592-1.715 2.22-.753.62-1.68 1.11-2.775 1.454-1.094.35-2.36.52-3.79.52-1.62 0-3.16-.18-4.63-.55-1.467-.37-2.71-.843-3.726-1.42l1.04-4.576c1.083.575 2.26 1.054 3.52 1.44 1.26.38 2.56.57 3.9.57m22.92-4.19v8.214h-5.376v-8.25L654 487.764h5.86l4.452 8.56 4.32-8.56h5.824m17.196 10.882c0-2.23-.56-3.86-1.68-4.896-1.12-1.034-2.814-1.55-5.08-1.55h-2.29V505h2.564c2.01 0 3.594-.52 4.75-1.555 1.156-1.037 1.734-2.634 1.734-4.796m5.55-.21c0 1.66-.275 3.17-.818 4.52-.54 1.35-1.333 2.51-2.373 3.47s-2.33 1.7-3.87 2.22c-1.54.52-3.3.78-5.29.78h-7.76v-21.67h8.14c1.91 0 3.61.25 5.09.76s2.724 1.23 3.742 2.17c1.016.94 1.79 2.06 2.322 3.36.53 1.31.8 2.77.8 4.38"/>
    <path stroke="#1D1D1B" stroke-width=".69" d="M619.97 512.94h91.58m-52.067 0c0-13.286-10.186-28.933-10.186-28.933s27.82 1.5 27.762 28.932" stroke-linecap="round" stroke-linejoin="round"/>
    <path stroke="#1D1D1B" stroke-width=".69" d="M650.963 512.94c0-11.467-6.825-22.934-6.825-22.934s5.16-.3 10.128 3.216m-16.908 8.25s3.302-2.85 10.904-2.412m36.203 13.88c1.65-6.963 5.775-12.78 5.775-12.78" stroke-linecap="round" stroke-linejoin="round"/>
    <path stroke="#1D1D1B" stroke-width=".748" d="M305.675 535.626c-.382-4.438-2.605-15.418-10.4-21.142" stroke-linecap="round" stroke-linejoin="round"/>
    <path fill="#74DE7D" d="M277.93 517.45c0-2.28-1.453-3.42-4.355-3.42h-2.304v7.018l2.31-.036c1.49-.023 2.59-.335 3.29-.936.71-.6 1.06-1.475 1.06-2.627m5.69-.15c0 2.64-.86 4.65-2.57 6.04-1.71 1.39-4.19 2.09-7.43 2.09l-2.19.03v6.51h-5.73v-22.49h8.32c1.59 0 2.97.19 4.16.57 1.19.38 2.19.92 3 1.6.82.68 1.43 1.5 1.84 2.46.41.96.618 2.01.618 3.16m3.455 14.684v-22.49h16.41v4.61h-10.83v4.28h8.71v4.607h-8.71v4.39h10.83v4.608m12.41-11.66c1.227-.096 2.16-.41 2.81-.936.648-.53.97-1.33.97-2.41 0-1.97-1.414-2.95-4.245-2.95h-2.41v6.37l2.877-.07zm-2.77 11.66h-5.72v-22.49h9.03c3 0 5.268.644 6.8 1.93 1.53 1.28 2.3 3.015 2.3 5.2 0 1.51-.39 2.823-1.17 3.94-.78 1.115-1.922 1.96-3.44 2.54l5.76 8.89h-6.44l-4.494-7.56-2.63.214v7.34z"/>
    <path stroke="#1D1D1B" stroke-width=".748" d="M295.275 514.485s.303 19.405-7.263 26.71c0 0 11.044-1.006 17.663-5.568h40.23" stroke-linecap="round" stroke-linejoin="round"/>
    <path stroke="#1D1D1B" stroke-width=".748" d="M295.13 518.96c-.632-1.536-1.923-3.025-1.923-3.025-.714 14.248-13.372 24.527-13.372 24.527 1.546-.29 6.41-.142 10.073-1.57" stroke-linecap="round" stroke-linejoin="round"/>
    <path stroke="#1D1D1B" stroke-width=".748" d="M285.76 534.19l2.843-35.014 3.333 22.917m-7.303 13.533h-35.26" stroke-linecap="round" stroke-linejoin="round"/>
    <path stroke="#1D1D1B" stroke-width=".739" d="M572.473 583.796v8.674m-16.38-.04v-27.544h18.65v4.944m0 11.744v10.855m14.79-23.18c0-2.66-2.155-4.81-4.814-4.81-2.66 0-4.82 2.15-4.82 4.81m-33.79 0v23.21m4.81-23.22c0-2.66-2.16-4.82-4.82-4.82s-4.82 2.15-4.82 4.81" stroke-linecap="round" stroke-linejoin="round"/>
    <path stroke="#1D1D1B" stroke-width=".739" d="M537.02 569.254h24.703l3.695-2.64 3.696 2.64h24.63" stroke-linecap="round" stroke-linejoin="round"/>
    <path fill="#F27959" d="M548.9 583.254l4.61-16.633h7.872l.745 22.17h-5.356l-.1-17.09-4.86 16.74h-6.02l-4.86-16.7-.14 17.06h-5.25l.78-22.16h7.98m21.95 22.17v-22.17h16.17v4.54h-10.68v4.22h8.59v4.54h-8.58v4.33h10.68v4.54m3.87 0v-22.17h5.64v17.45h9.29v4.72"/>
    <path stroke="#1D1D1B" stroke-width=".739" d="M572.473 564.886c0-3.896-3.158-7.055-7.055-7.055-3.896 0-7.054 3.16-7.054 7.06m0 27.59v-8.68c0-3.89 3.158-7.05 7.055-7.05 3.89 0 7.05 3.16 7.05 7.06m-7.06-25.96v-3.76" stroke-linecap="round" stroke-linejoin="round"/>
    <path stroke="#1D1D1B" stroke-width=".739" d="M569.282 564.886c0-3.896-1.73-7.055-3.863-7.055-2.14 0-3.87 3.16-3.87 7.06m23.16 4.37v23.22m-61.7 0h92.05m-40.33-10.89v-15.85" stroke-linecap="round" stroke-linejoin="round"/>
    <path fill="#F7F7F7" d="M572.587 615.57c2.302 3.835 5.248 15.124 13 15 9.314-.147 21.506-24.435 14.468-21.876-7.038 2.56-28.792 1.92-28.792 1.92l1.324 4.957z"/>
    <path stroke="#1D1D1B" d="M318.544 499.495c.405-.417.873-.892 1.402-1.42m313.057-18.19c.56.362 1.12.726 1.68 1.093" stroke-linecap="round" stroke-linejoin="round"/>
    <path fill="#1D1D1B" d="M320.84 501.472c-1.147 1.2-3.052 1.246-4.253.1-1.2-1.148-1.246-3.053-.1-4.254 1.148-1.2 3.052-1.245 4.254-.1 1.21 1.148 1.25 3.052.1 4.254m308.84-18.822l-.18-.985 4.85-.884-1.23-4.77.97-.25 1.51 5.82"/>
    <path stroke="#1D1D1B" d="M624.822 502.283c-.562.165-1.2.363-1.904.598m-44.682 49.68c-.15.65-.296 1.3-.434 1.96" stroke-linecap="round" stroke-linejoin="round"/>
    <path fill="#1D1D1B" d="M623.892 499.465c1.602-.44 3.256.504 3.695 2.106.44 1.61-.504 3.26-2.106 3.7-1.6.44-3.25-.5-3.69-2.1-.44-1.6.51-3.25 2.11-3.69m-49.34 50.92l.87-.5 2.49 4.26 4.06-2.79.57.83-4.95 3.41"/>
    <path stroke="#1D1D1B" d="M555.12 555.123c-.31-.494-.668-1.055-1.078-1.678m-218.655-40.197c-.602.28-1.205.565-1.81.852" stroke-linecap="round" stroke-linejoin="round"/>
    <path fill="#1D1D1B" d="M557.585 553.436c.866 1.417.42 3.27-.998 4.135-1.417.87-3.27.42-4.135-.99-.866-1.41-.42-3.27.998-4.13 1.418-.86 3.27-.42 4.135 1m-222.66-44.4l.923.39-1.92 4.54 4.668 1.59-.322.95-5.687-1.93"/>
    <g stroke="#1D1D1B" stroke-linecap="round" stroke-linejoin="round">
      <path d="M322.818 495.283c27.646-26.255 145.1-121.012 308.486-16.49" stroke-dasharray="4.01 4.01"/>
      <path stroke-width="2" d="M316.587 501.57s134-79 319-20" opacity=".05"/>
    </g>
    <g stroke="#1D1D1B" stroke-linecap="round" stroke-linejoin="round">
      <path d="M619.067 504.303c-11.855 4.805-32.727 17.167-40.334 46.245" stroke-dasharray="4.11 4.11"/>
      <path stroke-width="2" d="M627.587 501.57s-28 15-50 54" opacity=".05"/>
    </g>
    <g stroke="#1D1D1B" stroke-linecap="round" stroke-linejoin="round">
      <path d="M551.784 550.148c-17.43-24.526-83.323-98.06-214.57-37.746" stroke-dasharray="4 4"/>
      <path stroke-width="2" d="M556.587 557.57s-106-70-224-43" opacity=".05"/>
    </g>
  </g>
</svg>
