
<svg xmlns="http://www.w3.org/2000/svg" viewBox="520 2822 381 61" xmlns:xlink="http://www.w3.org/1999/xlink">
  <defs>
    <path id="a" d="M0 .34V29.9h35.2V.33H0z"/>
    <path id="c" d="M19.85 29.9V.33H.1V29.9z"/>
    <path id="e" d="M25.67 30.1V.1H.14v30h25.53z"/>
  </defs>
  <g fill="none" fill-rule="evenodd">
    <path stroke="#1D1D1B" stroke-width=".98" d="M861.26 2862.12v11.56M839.58 2873.63v-36.72h24.7v6.6M864.27 2859.16v14.47M883.84 2842.73c0-3.54-2.86-6.4-6.37-6.4-3.52 0-6.37 2.86-6.37 6.4M826.38 2842.73v30.95M832.75 2842.73c0-3.54-2.85-6.4-6.37-6.4s-6.37 2.86-6.37 6.4" stroke-linecap="round" stroke-linejoin="round"/>
    <path stroke="#1D1D1B" stroke-width=".98" d="M814.35 2842.73h32.7l4.88-3.5 4.9 3.5h32.58" stroke-linecap="round" stroke-linejoin="round"/>
    <g transform="translate(812.367 2838.883)">
      <mask id="b" fill="#fff">
        <use xlink:href="#a"/>
      </mask>
      <path fill="#F27959" d="M17.7 22.52L23.8.34h10.4l1 29.55h-7.1l-.13-22.8-6.43 22.32h-7.98L7.13 7.15 6.95 29.9H0L1.03.33H11.6" mask="url(#b)"/>
    </g>
    <path fill="#F27959" d="M853 2868.77v-29.55h21.42v6.06H860.3v5.62h11.35v6.05H860.3v5.77h14.12v6.05"/>
    <g transform="translate(879.434 2838.883)">
      <mask id="d" fill="#fff">
        <use xlink:href="#c"/>
      </mask>
      <path fill="#F27959" d="M.1 29.9V.33h7.46V23.6h12.3v6.3" mask="url(#d)"/>
    </g>
    <path stroke="#1D1D1B" stroke-width=".98" d="M861.26 2836.9c0-5.18-4.18-9.4-9.34-9.4-5.15 0-9.33 4.22-9.33 9.4M842.6 2873.68v-11.56c0-5.2 4.17-9.4 9.32-9.4 5.16 0 9.34 4.2 9.34 9.4M851.92 2827.5v-5" stroke-linecap="round" stroke-linejoin="round"/>
    <path stroke="#1D1D1B" stroke-width=".98" d="M857.04 2836.9c0-5.18-2.3-9.4-5.12-9.4-2.82 0-5.1 4.22-5.1 9.4M877.47 2842.73v30.95M864.27 2859.16v-21.12" stroke-linecap="round" stroke-linejoin="round"/>
    <g>
      <path stroke="#1D1D1B" stroke-width=".91" d="M744.64 2856.6s-10.5-5.9-22.33-2.94M683.63 2873.64c-2.75-11.04-8.97-15.3-8.97-15.3" stroke-linecap="round" stroke-linejoin="round"/>
      <path fill="#79B9F7" d="M683.42 2863.63c1.3 0 2.34-.23 3.15-.7.8-.45 1.2-1.13 1.2-2.02 0-.5-.12-.9-.38-1.24-.27-.34-.64-.64-1.13-.9-.5-.26-1.1-.5-1.84-.74-.73-.23-1.57-.5-2.52-.77-1.03-.27-2.1-.63-3.18-1.06-1.1-.44-2.08-1-2.98-1.65-.9-.66-1.64-1.5-2.2-2.5-.57-1-.85-2.22-.85-3.67 0-2.68.93-4.84 2.83-6.47 1.9-1.62 4.62-2.44 8.17-2.44 2.26 0 4.27.23 6.03.7 1.76.45 3.33 1.07 4.7 1.84l-1.42 6.06c-1.43-.77-2.97-1.4-4.62-1.85-1.65-.46-3.2-.7-4.64-.7-2.5 0-3.76.83-3.76 2.46 0 .47.15.87.46 1.23.3.34.73.65 1.28.9.56.27 1.2.52 1.93.75.74.23 1.53.47 2.4.72 1.1.3 2.17.68 3.25 1.1 1.07.44 2.03 1 2.9 1.65.84.66 1.53 1.48 2.05 2.45.52.97.78 2.15.78 3.53 0 1.4-.26 2.66-.78 3.8-.52 1.14-1.28 2.12-2.27 2.95-1 .84-2.22 1.48-3.67 1.95-1.44.46-3.12.7-5 .7-2.16 0-4.2-.26-6.14-.75-1.94-.5-3.6-1.13-4.93-1.9l1.37-6.1c1.44.77 3 1.4 4.66 1.92 1.67.5 3.4.76 5.16.76M713.75 2858.04V2869h-7.1v-11l-10-17.9h7.74l5.9 11.43 5.7-11.42h7.7M746.47 2854.62c0-2.97-.74-5.15-2.23-6.53-1.48-1.4-3.72-2.08-6.72-2.08h-3.03v17.06h3.4c2.65 0 4.74-.7 6.27-2.07 1.53-1.37 2.3-3.5 2.3-6.38m7.34-.28c0 2.22-.35 4.23-1.07 6.03-.72 1.8-1.77 3.35-3.14 4.63-1.4 1.28-3.1 2.26-5.13 2.95-2.03.7-4.37 1.05-7 1.05H727.2v-28.9h10.78c2.54 0 4.8.34 6.74 1.02 1.96.68 3.6 1.64 4.96 2.9 1.34 1.24 2.37 2.73 3.07 4.47.7 1.74 1.06 3.7 1.06 5.84"/>
      <path stroke="#1D1D1B" stroke-width=".91" d="M703.94 2873.64c0-17.7-13.48-38.57-13.48-38.57s36.8 2 36.74 38.57" stroke-linecap="round" stroke-linejoin="round"/>
      <path stroke="#1D1D1B" stroke-width=".91" d="M692.66 2873.64c0-15.3-9.03-30.58-9.03-30.58s6.83-.4 13.4 4.3M674.66 2858.35s4.37-3.8 14.43-3.22M737 2873.64c2.18-9.28 7.64-17.04 7.64-17.04" stroke-linecap="round" stroke-linejoin="round"/>
    </g>
    <g>
      <g fill="#FFF" stroke="#FFF" stroke-width=".99" stroke-linecap="round" stroke-linejoin="round">
        <path d="M573.5 2874.1c-.52-5.92-3.46-20.56-13.77-28.2M559.73 2845.9s.4 25.88-9.62 35.62c0 0 14.63-1.34 23.4-7.43"/>
        <path d="M559.53 2851.87c-.83-2.04-2.54-4.03-2.54-4.03-.96 19-17.7 32.7-17.7 32.7 2.04-.4 8.48-.2 13.32-2.1"/>
        <path d="M547.13 2872.18l3.76-46.68 4.4 30.55"/>
      </g>
      <path stroke="#1D1D1B" stroke-width=".99" d="M573.5 2874.1c-.52-5.92-3.46-20.56-13.77-28.2" stroke-linecap="round" stroke-linejoin="round"/>
      <path fill="#74DE7D" d="M536.77 2849.86c0-3.04-1.92-4.56-5.76-4.56h-3.04v9.36l3.05-.05c1.97-.02 3.43-.44 4.36-1.24.94-.8 1.4-1.96 1.4-3.5m7.53-.2c0 3.53-1.14 6.22-3.4 8.07-2.28 1.86-5.56 2.78-9.85 2.78l-2.9.06v8.68h-7.57v-29.98h11c2.1 0 3.93.25 5.5.77 1.57.5 2.9 1.22 3.98 2.13 1.07.9 1.88 2 2.42 3.3.54 1.27.8 2.67.8 4.2M548.87 2869.24v-29.98h21.7v6.14h-14.32v5.7h11.52v6.15h-11.52v5.85h14.33v6.14"/>
      <g transform="translate(575.63 2839.158)">
        <mask id="f" fill="#fff">
          <use xlink:href="#e"/>
        </mask>
        <path fill="#74DE7D" d="M11.38 14.54C13 14.4 14.24 14 15.1 13.3c.86-.7 1.28-1.78 1.28-3.22 0-2.62-1.87-3.94-5.62-3.94h-3.2v8.5l3.82-.1zM7.72 30.1H.14V.1H12.1c3.97 0 6.97.86 9 2.57 2.03 1.7 3.05 4.02 3.05 6.93 0 2-.52 3.77-1.55 5.25-1.03 1.5-2.55 2.62-4.55 3.4l7.62 11.84h-8.52L11.2 20l-3.48.3v9.8z" mask="url(#f)"/>
      </g>
      <path stroke="#1D1D1B" stroke-width=".99" d="M559.73 2845.9s.4 25.88-9.62 35.62c0 0 14.63-1.34 23.4-7.43" stroke-linecap="round" stroke-linejoin="round"/>
      <path stroke="#1D1D1B" stroke-width=".99" d="M559.53 2851.87c-.83-2.04-2.54-4.03-2.54-4.03-.96 19-17.7 32.7-17.7 32.7 2.04-.4 8.48-.2 13.32-2.1" stroke-linecap="round" stroke-linejoin="round"/>
      <path stroke="#1D1D1B" stroke-width=".99" d="M547.13 2872.18l3.76-46.68 4.4 30.55" stroke-linecap="round" stroke-linejoin="round"/>
    </g>
  </g>
</svg>
