<svg xmlns="http://www.w3.org/2000/svg" viewBox="434 -1 92 53">
  <g fill="none" fill-rule="evenodd">
    <path stroke="#1D1D1B" stroke-width=".98" d="M477.92 51.494v-8.152c0-1.773 1.44-3.21 3.217-3.21 1.777 0 3.217 1.437 3.217 3.21v8.152" stroke-linecap="round" stroke-linejoin="round"/>
    <path stroke="#1D1D1B" d="M524.588 37h-26.094m-47.264 0H435" stroke-linecap="round" stroke-linejoin="round"/>
    <path fill="#EFB348" d="M447.09 41.027h5.788c.497 0 1-.054 1.51-.164.51-.11.97-.303 1.385-.578.413-.275.75-.633 1.014-1.072.26-.44.393-.976.393-1.61 0-.687-.173-1.243-.518-1.67-.345-.426-.78-.75-1.303-.97-.53-.22-1.09-.37-1.7-.453-.61-.083-1.17-.124-1.7-.124h-4.88v6.64zm0-12.086h4.672c.496 0 .986-.05 1.468-.16s.916-.29 1.302-.53c.387-.242.697-.573.93-.99.235-.41.353-.903.353-1.48 0-.605-.132-1.107-.393-1.506-.262-.4-.6-.71-1.013-.93-.42-.22-.89-.377-1.41-.473-.53-.096-1.04-.144-1.53-.144h-4.39v6.228zm-6.452-11.67h10.917c1.267 0 2.543.09 3.825.27 1.282.18 2.433.54 3.454 1.08 1.02.538 1.846 1.288 2.48 2.25.635.964.952 2.243.952 3.837 0 1.65-.462 3.018-1.385 4.105-.92 1.086-2.14 1.863-3.66 2.33v.083c.97.14 1.84.41 2.63.807.79.4 1.46.906 2.03 1.524.57.62 1 1.34 1.3 2.165.31.824.46 1.705.46 2.64 0 1.54-.33 2.825-.99 3.856-.66 1.03-1.514 1.862-2.562 2.494-1.05.633-2.23 1.086-3.537 1.36-1.31.276-2.612.414-3.906.414h-12V17.27zm26.797 0h8.767l12.448 20.29h.082V17.27h6.45v29.205h-8.435l-12.78-20.79h-.082v20.79h-6.45m33.95-29.205h19.89v5.94h-13.44v5.446h12.698v5.94h-12.696v5.94h14.185v5.94h-20.636"/>
    <path stroke="#1D1D1B" stroke-width=".98" d="M498.494 51.494v-16.78l-17.224-6.448-17.225 6.448v16.78" stroke-linecap="round" stroke-linejoin="round"/>
    <path stroke="#1D1D1B" stroke-width=".98" d="M486.22 30.054V7.85L481.27 0l-4.953 7.85v22.204" stroke-linecap="round" stroke-linejoin="round"/>
    <path stroke="#1D1D1B" stroke-width=".98" d="M483.898 15.272c0-1.448-1.177-2.622-2.63-2.622-1.45 0-2.627 1.174-2.627 2.622s1.18 2.623 2.63 2.623 2.63-1.175 2.63-2.623zm-15.692 36.222v-8.152c0-1.773 1.44-3.21 3.217-3.21 1.777 0 3.218 1.437 3.218 3.21v8.152m11.58-23.204h7.36v4.344m-17.31-4.344h-7.35v4.344m29.58 5.024l-17.22-6.45-17.224 6.45m23.588 13.836v-8.152c0-1.773 1.44-3.21 3.218-3.21s3.22 1.437 3.22 3.21v8.152" stroke-linecap="round" stroke-linejoin="round"/>
    <path stroke="#1D1D1B" d="M464.045 37H451.23" stroke-linecap="round" stroke-linejoin="round"/>
  </g>
</svg>
