<svg xmlns="http://www.w3.org/2000/svg" viewBox="0 0 184.16 106.97"><defs><style>.cls-1{fill:none;stroke:#1d1d1b;stroke-linecap:round;stroke-linejoin:round;stroke-width:2px;}.cls-2{fill:#efb348;}</style></defs><title>localhostBNE_icon</title><g id="Layer_2" data-name="Layer 2"><g id="Assets"><path class="cls-1" d="M88.27,106V89.35a6.54,6.54,0,0,1,13.09,0V106"/><line class="cls-1" x1="183.16" y1="77.76" x2="130.1" y2="77.76"/><line class="cls-1" x1="34" y1="77.76" x2="1" y2="77.76"/><path class="cls-2" d="M12.46,36.2h22.2a56.32,56.32,0,0,1,7.78.55,21.3,21.3,0,0,1,7,2.19,13.47,13.47,0,0,1,5,4.58,14.05,14.05,0,0,1,1.93,7.82,12.49,12.49,0,0,1-2.82,8.37,15.49,15.49,0,0,1-7.44,4.75v.17a17,17,0,0,1,5.34,1.64,14.3,14.3,0,0,1,4.12,3.11,13.28,13.28,0,0,1,2.65,4.42,15.5,15.5,0,0,1,.93,5.38,14.3,14.3,0,0,1-2,7.86A15.83,15.83,0,0,1,52,92.12a22.81,22.81,0,0,1-7.19,2.78,38.49,38.49,0,0,1-7.95.84H12.46ZM25.58,60h9.5a13.33,13.33,0,0,0,3-.34,8.26,8.26,0,0,0,2.65-1.09,5.7,5.7,0,0,0,1.89-2,6.07,6.07,0,0,0,.71-3,5.51,5.51,0,0,0-.8-3.07,5.57,5.57,0,0,0-2.06-1.89,9.87,9.87,0,0,0-2.86-1,17.14,17.14,0,0,0-3.11-.29H25.58Zm0,24.64H37.35a14.46,14.46,0,0,0,3.07-.34,8.11,8.11,0,0,0,2.82-1.18,6.73,6.73,0,0,0,2.06-2.19,6.33,6.33,0,0,0,.8-3.28A5.26,5.26,0,0,0,45,74.25a6.68,6.68,0,0,0-2.65-2,13.57,13.57,0,0,0-3.45-.92,25.51,25.51,0,0,0-3.45-.25H25.58Z"/><path class="cls-2" d="M67,36.2H84.78l25.31,41.37h.17V36.2h13.12V95.73H106.22l-26-42.38h-.17V95.73H67Z"/><path class="cls-2" d="M136,36.2h40.45V48.31H149.1v11.1h25.81V71.52H149.1V83.62h28.84V95.73H136Z"/><line class="cls-1" x1="168.75" y1="105.97" x2="17" y2="105.97"/><polyline class="cls-1" points="130.1 105.97 130.1 71.76 95.08 58.62 60.06 71.76 60.06 105.97"/><polyline class="cls-1" points="105.15 62.26 105.15 17 95.08 1 85.01 17 85.01 62.26"/><circle class="cls-1" cx="95.08" cy="32.13" r="5.35"/><line class="cls-1" x1="85.27" y1="17.5" x2="105.05" y2="17.5"/><path class="cls-1" d="M68.52,106V89.35a6.54,6.54,0,0,1,13.09,0V106"/><polyline class="cls-1" points="105.15 58.67 120.1 58.67 120.1 67.52"/><polyline class="cls-1" points="84.91 58.67 69.96 58.67 69.96 67.52"/><polyline class="cls-1" points="130.1 77.76 95.08 64.62 60.06 77.76"/><path class="cls-1" d="M108,106V89.35a6.54,6.54,0,1,1,13.09,0V106"/><line class="cls-1" x1="60.06" y1="77.76" x2="34" y2="77.76"/></g></g></svg>