<svg xmlns="http://www.w3.org/2000/svg" viewBox="0 0 173.67 103.48"><defs><style>.cls-1{fill:none;stroke:#1d1d1b;stroke-linecap:round;stroke-linejoin:round;stroke-width:1.95px;}.cls-2{fill:#f27959;}</style></defs><title>Asset 10</title><g id="Layer_2" data-name="Layer 2"><g id="Assets"><path class="cls-1" d="M97.69,79.57v22.93"/><polyline class="cls-1" points="54.37 102.4 54.37 29.57 103.69 29.57 103.69 42.65"/><line class="cls-1" x1="103.69" y1="73.7" x2="103.69" y2="102.4"/><path class="cls-1" d="M142.79,41.12a12.73,12.73,0,1,0-25.45,0"/><line class="cls-1" x1="28" y1="41.12" x2="28" y2="102.51"/><path class="cls-1" d="M40.73,41.12a12.73,12.73,0,1,0-25.45,0"/><polyline class="cls-1" points="3.95 41.12 69.26 41.12 79.03 34.14 88.81 41.12 153.93 41.12"/><path class="cls-2" d="M35.35,78.14l12.19-44H68.36l2,58.61H56.17l-.28-45.2L43,91.83H27.1L14.25,47.67l-.38,45.1H0L2.06,34.16h21.1"/><path class="cls-2" d="M81.21,92.77V34.16H124v12H95.74V57.32h22.69v12H95.74V80.77H124v12Z"/><path class="cls-2" d="M134.19,92.77V34.16H149.1V80.3h24.57V92.77Z"/><path class="cls-1" d="M97.69,29.57a18.65,18.65,0,1,0-37.31,0"/><path class="cls-1" d="M60.38,102.51V79.57a18.65,18.65,0,0,1,37.31,0"/><line class="cls-1" x1="79.03" y1="10.92" x2="79.03" y2="0.98"/><path class="cls-1" d="M89.25,29.57c0-10.3-4.57-18.65-10.22-18.65S68.82,19.27,68.82,29.57"/><line class="cls-1" x1="130.07" y1="41.12" x2="130.07" y2="102.51"/><line class="cls-1" x1="3.95" y1="102.51" x2="154.81" y2="102.51"/><line class="cls-1" x1="103.69" y1="73.7" x2="103.69" y2="31.81"/></g></g></svg>