<svg xmlns="http://www.w3.org/2000/svg" viewBox="0 0 161.29 113.08"><defs><style>.cls-1{fill:none;stroke:#1d1d1b;stroke-linecap:round;stroke-linejoin:round;stroke-width:1.98px;}.cls-2{fill:#74de7d;}</style></defs><title>Asset 9</title><g id="Layer_2" data-name="Layer 2"><g id="Assets"><path class="cls-1" d="M105.72,97.37c-1-11.74-6.89-40.77-27.5-55.9"/><path class="cls-2" d="M47.39,48.93q0,10.47-6.8,16T20.93,70.43l-5.8.1V87.75H0V28.28H22A35.83,35.83,0,0,1,33,29.8,23.45,23.45,0,0,1,40.92,34a17.2,17.2,0,0,1,4.85,6.52A21.2,21.2,0,0,1,47.39,48.93Zm-15,.38q0-9-11.51-9H14.75V58.82l6.09-.09q5.9-.09,8.71-2.47T32.35,49.31Z"/><path class="cls-2" d="M56.52,87.75V28.28H99.92V40.46H71.27V51.78h23V64h-23V75.57H99.92V87.75Z"/><path class="cls-2" d="M125.42,87.75H110.29V28.28h23.88q11.89,0,18,5.09t6.09,13.75a17.73,17.73,0,0,1-3.09,10.42,18.91,18.91,0,0,1-9.09,6.71l15.23,23.5h-17l-11.89-20-6.95.57Zm7.33-30.83q4.85-.38,7.42-2.47t2.57-6.38q0-7.8-11.23-7.8h-6.38V57.11Z"/><path class="cls-1" d="M78.22,41.47S79,92.78,59,112.09c0,0,29.2-2.66,46.71-14.72H146"/><path class="cls-1" d="M77.84,53.3a34.56,34.56,0,0,0-5.08-8C70.86,83,37.39,110.16,37.39,110.16c4.09-.77,17-.38,26.64-4.15"/><polyline class="cls-1" points="53.06 93.57 60.58 0.99 69.39 61.59"/><line class="cls-1" x1="50.08" y1="97.37" x2="9.73" y2="97.37"/></g></g></svg>
