<?xml version="1.0" encoding="UTF-8"?>
<svg viewBox="0 0 528 60" version="1.1" xmlns="http://www.w3.org/2000/svg" xmlns:xlink="http://www.w3.org/1999/xlink">
    <!-- Generator: Sketch 42 (36781) - http://www.bohemiancoding.com/sketch -->
    <title>Group</title>
    <desc>Created with Sketch.</desc>
    <defs>
        <polygon id="path-1" points="0 0.34 0 29.9 35.2 29.9 35.2 0.33 0 0.33"></polygon>
        <polygon id="path-3" points="19.85 29.9 19.85 0.33 0.1 0.33 0.1 29.9"></polygon>
        <polygon id="path-5" points="25.67 30.1 25.67 0.1 0.14 0.1 0.14 30.1"></polygon>
    </defs>
    <g id="Page-1" stroke="none" stroke-width="1" fill="none" fill-rule="evenodd">
        <g id="Group" transform="translate(0.000000, -1.000000)">
            <g id="BNE-Logo" transform="translate(438.734000, 1.000000)">
                <path d="M42.4419601,51.4942264 L42.4419601,43.342 C42.4419601,41.5695849 43.8669328,40.1322264 45.6240749,40.1322264 C47.3812169,40.1322264 48.8061896,41.5695849 48.8061896,43.342 L48.8061896,51.4942264" id="Stroke-1" stroke="#1D1D1B" stroke-linecap="round" stroke-linejoin="round"></path>
                <path d="M88.5923508,37 L62.7881869,37" id="Stroke-3" stroke="#1D1D1B" stroke-linecap="round" stroke-linejoin="round"></path>
                <path d="M16.0490344,37 L-0.00014590164,37" id="Stroke-5" stroke="#1D1D1B" stroke-linecap="round" stroke-linejoin="round"></path>
                <path d="M11.9545967,41.0275585 L17.6792907,41.0275585 C18.1704929,41.0275585 18.6675311,40.9731057 19.1718645,40.8627283 C19.6761978,40.7528415 20.1328699,40.5605396 20.5423672,40.2848415 C20.9508918,40.0106151 21.2845202,39.6525019 21.5447115,39.2129547 C21.8029574,38.772917 21.9332962,38.2372189 21.9332962,37.6038981 C21.9332962,36.9166151 21.7621049,36.3598226 21.4211814,35.9330302 C21.0802579,35.5072189 20.6508208,35.1844264 20.1328699,34.9641623 C19.6154055,34.7438981 19.0561158,34.5928038 18.4564601,34.5103887 C17.856318,34.427483 17.2975148,34.3862755 16.7800503,34.3862755 L11.9545967,34.3862755 L11.9545967,41.0275585 Z M11.9545967,28.9409925 L16.575788,28.9409925 C17.0660175,28.9409925 17.5504109,28.8865396 18.027023,28.7761623 C18.5041213,28.666766 18.9335585,28.4877094 19.3153344,28.2404642 C19.6971104,27.9927283 20.0039902,27.6625774 20.2354874,27.2500113 C20.4664984,26.8374453 20.5832197,26.3424642 20.5832197,25.7650679 C20.5832197,25.1602 20.4533672,24.6583509 20.194635,24.2590302 C19.9354164,23.8611811 19.6022743,23.551634 19.192777,23.3313698 C18.7832798,23.1115962 18.3197989,22.953634 17.8018481,22.8569925 C17.2843836,22.7608415 16.7800503,22.712766 16.2888481,22.712766 L11.9545967,22.712766 L11.9545967,28.9409925 Z M5.57529071,17.267483 L16.370553,17.267483 C17.6243344,17.267483 18.8858973,17.3572566 20.1537825,17.5353321 C21.4211814,17.7148792 22.5592142,18.0720113 23.5688536,18.6082 C24.5765475,19.1443887 25.3945694,19.8939736 26.0224328,20.8564642 C26.6493235,21.8194453 26.9625257,23.0978604 26.9625257,24.6926906 C26.9625257,26.3424642 26.5058536,27.7106528 25.5929956,28.796766 C24.679165,29.8833698 23.4730448,30.6604264 21.9741486,31.1274453 L21.9741486,31.2098604 C22.9273727,31.3482 23.7930557,31.6160491 24.5697388,32.0143887 C25.3469082,32.4132189 26.0146514,32.9224264 26.5744273,33.5405396 C27.1327443,34.159634 27.5621814,34.8817472 27.8622525,35.7063887 C28.1623235,36.5315208 28.3126022,37.4120868 28.3126022,38.3461245 C28.3126022,39.8869925 27.9848098,41.1722755 27.3301978,42.2029547 C26.6765585,43.2346151 25.8313016,44.0666151 24.7949137,44.6984642 C23.7585257,45.3317849 22.5932579,45.7855585 21.298624,46.0602755 C20.0039902,46.3349925 18.714706,46.4728415 17.4346623,46.4728415 L5.57529071,46.4728415 L5.57529071,17.267483 Z" id="Fill-7" fill="#EFB348"></path>
                <polygon id="Fill-9" fill="#EFB348" points="32.0749678 17.2676792 40.7444432 17.2676792 53.0531918 37.5623962 53.1358694 37.5623962 53.1358694 17.2676792 59.5151754 17.2676792 59.5151754 46.4725472 51.1725197 46.4725472 38.5359787 25.6823585 38.4542738 25.6823585 38.4542738 46.4725472 32.0749678 46.4725472"></polygon>
                <polygon id="Fill-11" fill="#EFB348" points="65.6484913 17.2676792 85.3184639 17.2676792 85.3184639 23.2074528 72.0277973 23.2074528 72.0277973 28.6527358 84.5826333 28.6527358 84.5826333 34.5925094 72.0277973 34.5925094 72.0277973 40.5327736 86.0547809 40.5327736 86.0547809 46.4725472 65.6484913 46.4725472"></polygon>
                <polyline id="Stroke-15" stroke="#1D1D1B" stroke-linecap="round" stroke-linejoin="round" points="62.7883814 51.4942264 62.7883814 34.7144151 45.7553377 28.265434 28.7218077 34.7144151 28.7218077 51.4942264"></polyline>
                <polyline id="Stroke-17" stroke="#1D1D1B" stroke-linecap="round" stroke-linejoin="round" points="50.6522344 30.0540377 50.6522344 7.8490566 45.7552891 0 40.8583437 7.8490566 40.8583437 30.0540377"></polyline>
                <path d="M48.3549645,15.2723509 C48.3549645,13.8242 47.1906694,12.6497849 45.7549973,12.6497849 C44.3193251,12.6497849 43.1555164,13.8242 43.1555164,15.2723509 C43.1555164,16.7205019 44.3193251,17.894917 45.7549973,17.894917 C47.1906694,17.894917 48.3549645,16.7205019 48.3549645,15.2723509 Z" id="Stroke-19" stroke="#1D1D1B" stroke-linecap="round" stroke-linejoin="round"></path>
                <path d="M40.9843541,8 L50.6036492,8" id="Stroke-21" stroke="#1D1D1B" stroke-linecap="round" stroke-linejoin="round"></path>
                <path d="M32.8367689,51.4942264 L32.8367689,43.342 C32.8367689,41.5695849 34.2612552,40.1322264 36.0188836,40.1322264 C37.7760257,40.1322264 39.200512,41.5695849 39.200512,43.342 L39.200512,51.4942264" id="Stroke-23" stroke="#1D1D1B" stroke-linecap="round" stroke-linejoin="round"></path>
                <polyline id="Stroke-25" stroke="#1D1D1B" stroke-linecap="round" stroke-linejoin="round" points="50.6522344 28.2905509 57.9249448 28.2905509 57.9249448 32.6340226"></polyline>
                <polyline id="Stroke-27" stroke="#1D1D1B" stroke-linecap="round" stroke-linejoin="round" points="40.8105366 28.2905509 33.5373399 28.2905509 33.5373399 32.6340226"></polyline>
                <polyline id="Stroke-29" stroke="#1D1D1B" stroke-linecap="round" stroke-linejoin="round" points="62.7883814 37.6578113 45.7553377 31.2088302 28.7218077 37.6578113"></polyline>
                <path d="M52.0476377,51.4942264 L52.0476377,43.342 C52.0476377,41.5695849 53.472124,40.1322264 55.2292661,40.1322264 C56.9864082,40.1322264 58.4113809,41.5695849 58.4113809,43.342 L58.4113809,51.4942264" id="Stroke-31" stroke="#1D1D1B" stroke-linecap="round" stroke-linejoin="round"></path>
                <path d="M28.7218563,37 L16.0488399,37" id="Stroke-33" stroke="#1D1D1B" stroke-linecap="round" stroke-linejoin="round"></path>
            </g>
            <g id="MEL-Logo" transform="translate(288.489333, 0.883000)">
                <path d="M48.893,40.237 L48.893,51.797 M27.213,51.747 L27.213,15.027 L51.913,15.027 L51.913,21.627 M51.903,37.277 L51.903,51.747 M71.473,20.847 C71.473,17.307 68.613,14.447 65.103,14.447 C61.583,14.447 58.733,17.307 58.733,20.847 M14.013,20.847 L14.013,51.797 M20.383,20.847 C20.383,17.307 17.533,14.447 14.013,14.447 C10.493,14.447 7.643,17.307 7.643,20.847" id="Shape" stroke="#1D1D1B" stroke-width="0.98" stroke-linecap="round" stroke-linejoin="round"></path>
                <polyline id="Shape" stroke="#1D1D1B" stroke-width="0.98" stroke-linecap="round" stroke-linejoin="round" points="1.983 20.847 34.683 20.847 39.563 17.347 44.463 20.847 77.043 20.847"></polyline>
                <g id="Clipped" transform="translate(0.000000, 17.000000)">
                    <mask id="mask-2" fill="white">
                        <use xlink:href="#path-1"></use>
                    </mask>
                    <g id="a"></g>
                    <polyline id="Shape" fill="#F27959" fill-rule="nonzero" mask="url(#mask-2)" points="17.7 22.52 23.8 0.34 34.2 0.34 35.2 29.89 28.1 29.89 27.97 7.09 21.54 29.41 13.56 29.41 7.13 7.15 6.95 29.9 0 29.9 1.03 0.33 11.6 0.33"></polyline>
                </g>
                <g id="Group" transform="translate(67.067000, 17.000000)">
                    <g id="Clipped">
                        <mask id="mask-4" fill="white">
                            <use xlink:href="#path-3"></use>
                        </mask>
                        <g id="c"></g>
                        <polyline id="Shape" fill="#F27959" fill-rule="nonzero" mask="url(#mask-4)" points="0.1 29.9 0.1 0.33 7.56 0.33 7.56 23.6 19.86 23.6 19.86 29.9"></polyline>
                    </g>
                </g>
                <polyline id="Shape" fill="#F27959" fill-rule="nonzero" points="40.633 46.887 40.633 17.337 62.053 17.337 62.053 23.397 47.933 23.397 47.933 29.017 59.283 29.017 59.283 35.067 47.933 35.067 47.933 40.837 62.053 40.837 62.053 46.887"></polyline>
                <path d="M48.893,15.017 C48.893,9.837 44.713,5.617 39.553,5.617 C34.403,5.617 30.223,9.837 30.223,15.017 M30.233,51.797 L30.233,40.237 C30.233,35.037 34.403,30.837 39.553,30.837 C44.713,30.837 48.893,35.037 48.893,40.237 M39.553,5.617 L39.553,0.617" id="Shape" stroke="#1D1D1B" stroke-width="0.98" stroke-linecap="round" stroke-linejoin="round"></path>
                <path d="M44.673,15.017 C44.673,9.837 42.373,5.617 39.553,5.617 C36.733,5.617 34.453,9.837 34.453,15.017 M65.103,20.847 L65.103,51.797 M51.903,37.277 L51.903,16.157" id="Shape" stroke="#1D1D1B" stroke-width="0.98" stroke-linecap="round" stroke-linejoin="round"></path>
            </g>
            <g id="SYD-Logo" transform="translate(144.244667, 14.000000)">
                <path d="M72.64,21.6 C72.64,21.6 62.14,15.7 50.31,18.66 M11.63,38.64 C8.88,27.6 2.66,23.34 2.66,23.34" id="Shape" stroke="#1D1D1B" stroke-width="0.91" stroke-linecap="round" stroke-linejoin="round"></path>
                <path d="M11.42,28.63 C12.72,28.63 13.76,28.4 14.57,27.93 C15.37,27.48 15.77,26.8 15.77,25.91 C15.77,25.41 15.65,25.01 15.39,24.67 C15.12,24.33 14.75,24.03 14.26,23.77 C13.76,23.51 13.16,23.27 12.42,23.03 C11.69,22.8 10.85,22.53 9.9,22.26 C8.87,21.99 7.8,21.63 6.72,21.2 C5.62,20.76 4.64,20.2 3.74,19.55 C2.84,18.89 2.1,18.05 1.54,17.05 C0.97,16.05 0.69,14.83 0.69,13.38 C0.69,10.7 1.62,8.54 3.52,6.91 C5.42,5.29 8.14,4.47 11.69,4.47 C13.95,4.47 15.96,4.7 17.72,5.17 C19.48,5.62 21.05,6.24 22.42,7.01 L21,13.07 C19.57,12.3 18.03,11.67 16.38,11.22 C14.73,10.76 13.18,10.52 11.74,10.52 C9.24,10.52 7.98,11.35 7.98,12.98 C7.98,13.45 8.13,13.85 8.44,14.21 C8.74,14.55 9.17,14.86 9.72,15.11 C10.28,15.38 10.92,15.63 11.65,15.86 C12.39,16.09 13.18,16.33 14.05,16.58 C15.15,16.88 16.22,17.26 17.3,17.68 C18.37,18.12 19.33,18.68 20.2,19.33 C21.04,19.99 21.73,20.81 22.25,21.78 C22.77,22.75 23.03,23.93 23.03,25.31 C23.03,26.71 22.77,27.97 22.25,29.11 C21.73,30.25 20.97,31.23 19.98,32.06 C18.98,32.9 17.76,33.54 16.31,34.01 C14.87,34.47 13.19,34.71 11.31,34.71 C9.15,34.71 7.11,34.45 5.17,33.96 C3.23,33.46 1.57,32.83 0.24,32.06 L1.61,25.96 C3.05,26.73 4.61,27.36 6.27,27.88 C7.94,28.38 9.67,28.64 11.43,28.64 M41.75,23.04 L41.75,34 L34.65,34 L34.65,23 L24.65,5.1 L32.39,5.1 L38.29,16.53 L43.99,5.11 L51.69,5.11 M74.47,19.62 C74.47,16.65 73.73,14.47 72.24,13.09 C70.76,11.69 68.52,11.01 65.52,11.01 L62.49,11.01 L62.49,28.07 L65.89,28.07 C68.54,28.07 70.63,27.37 72.16,26 C73.69,24.63 74.46,22.5 74.46,19.62 M81.8,19.34 C81.8,21.56 81.45,23.57 80.73,25.37 C80.01,27.17 78.96,28.72 77.59,30 C76.19,31.28 74.49,32.26 72.46,32.95 C70.43,33.65 68.09,34 65.46,34 L55.2,34 L55.2,5.1 L65.98,5.1 C68.52,5.1 70.78,5.44 72.72,6.12 C74.68,6.8 76.32,7.76 77.68,9.02 C79.02,10.26 80.05,11.75 80.75,13.49 C81.45,15.23 81.81,17.19 81.81,19.33" id="Shape" fill="#79B9F7" fill-rule="nonzero"></path>
                <path d="M31.94,38.64 C31.94,20.94 18.46,0.07 18.46,0.07 C18.46,0.07 55.26,2.07 55.2,38.64" id="Shape" stroke="#1D1D1B" stroke-width="0.91" stroke-linecap="round" stroke-linejoin="round"></path>
                <path d="M20.66,38.64 C20.66,23.34 11.63,8.06 11.63,8.06 C11.63,8.06 18.46,7.66 25.03,12.36 M2.66,23.35 C2.66,23.35 7.03,19.55 17.09,20.13 M65,38.64 C67.18,29.36 72.64,21.6 72.64,21.6" id="Shape" stroke="#1D1D1B" stroke-width="0.91" stroke-linecap="round" stroke-linejoin="round"></path>
            </g>
            <g id="PER-Logo" transform="translate(0.000000, 4.000000)">
                <g id="Group" transform="translate(19.000000, 0.000000)" stroke="#FFFFFF" fill-rule="nonzero" stroke-width="0.99" fill="#FFFFFF" stroke-linecap="round" stroke-linejoin="round">
                    <path d="M34.5,49.1 C33.98,43.18 31.04,28.54 20.73,20.9 M20.73,20.9 C20.73,20.9 21.13,46.78 11.11,56.52 C11.11,56.52 25.74,55.18 34.51,49.09" id="Shape"></path>
                    <path d="M20.53,26.87 C19.7,24.83 17.99,22.84 17.99,22.84 C17.03,41.84 0.29,55.54 0.29,55.54 C2.33,55.14 8.77,55.34 13.61,53.44" id="Shape"></path>
                    <polyline id="Shape" points="8.13 47.18 11.89 0.5 16.29 31.05"></polyline>
                </g>
                <path d="M53.5,49.1 C52.98,43.18 50.04,28.54 39.73,20.9" id="Shape" stroke="#1D1D1B" stroke-width="0.99" stroke-linecap="round" stroke-linejoin="round"></path>
                <path d="M16.77,24.86 C16.77,21.82 14.85,20.3 11.01,20.3 L7.97,20.3 L7.97,29.66 L11.02,29.61 C12.99,29.59 14.45,29.17 15.38,28.37 C16.32,27.57 16.78,26.41 16.78,24.87 M24.31,24.67 C24.31,28.2 23.17,30.89 20.91,32.74 C18.63,34.6 15.35,35.52 11.06,35.52 L8.16,35.58 L8.16,44.26 L0.59,44.26 L0.59,14.28 L11.59,14.28 C13.69,14.28 15.52,14.53 17.09,15.05 C18.66,15.55 19.99,16.27 21.07,17.18 C22.14,18.08 22.95,19.18 23.49,20.48 C24.03,21.75 24.29,23.15 24.29,24.68 M28.87,44.24 L28.87,14.26 L50.57,14.26 L50.57,20.4 L36.25,20.4 L36.25,26.1 L47.77,26.1 L47.77,32.25 L36.25,32.25 L36.25,38.1 L50.58,38.1 L50.58,44.24" id="Shape" fill="#74DE7D" fill-rule="nonzero"></path>
                <g id="Group" transform="translate(55.630000, 14.158000)">
                    <g id="Clipped">
                        <mask id="mask-6" fill="white">
                            <use xlink:href="#path-5"></use>
                        </mask>
                        <g id="e"></g>
                        <path d="M11.38,14.54 C13,14.4 14.24,14 15.1,13.3 C15.96,12.6 16.38,11.52 16.38,10.08 C16.38,7.46 14.51,6.14 10.76,6.14 L7.56,6.14 L7.56,14.64 L11.38,14.54 L11.38,14.54 Z M7.72,30.1 L0.14,30.1 L0.14,0.1 L12.1,0.1 C16.07,0.1 19.07,0.96 21.1,2.67 C23.13,4.37 24.15,6.69 24.15,9.6 C24.15,11.6 23.63,13.37 22.6,14.85 C21.57,16.35 20.05,17.47 18.05,18.25 L25.67,30.09 L17.15,30.09 L11.2,20 L7.72,20.3 L7.72,30.1 L7.72,30.1 Z" id="Shape" fill="#74DE7D" fill-rule="nonzero" mask="url(#mask-6)"></path>
                    </g>
                </g>
                <path d="M39.73,20.9 C39.73,20.9 40.13,46.78 30.11,56.52 C30.11,56.52 44.74,55.18 53.51,49.09" id="Shape" stroke="#1D1D1B" stroke-width="0.99" stroke-linecap="round" stroke-linejoin="round"></path>
                <path d="M39.53,26.87 C38.7,24.83 36.99,22.84 36.99,22.84 C36.03,41.84 19.29,55.54 19.29,55.54 C21.33,55.14 27.77,55.34 32.61,53.44" id="Shape" stroke="#1D1D1B" stroke-width="0.99" stroke-linecap="round" stroke-linejoin="round"></path>
                <polyline id="Shape" stroke="#1D1D1B" stroke-width="0.99" stroke-linecap="round" stroke-linejoin="round" points="27.13 47.18 30.89 0.5 35.29 31.05"></polyline>
            </g>
        </g>
    </g>
</svg>
