<svg xmlns="http://www.w3.org/2000/svg" viewBox="0 0 163 78.33"><defs><style>.cls-1{fill:none;stroke:#1d1d1b;stroke-linecap:round;stroke-linejoin:round;stroke-width:1.82px;}.cls-2{fill:#79b9f6;}</style></defs><title>localhostSYD_icon</title><g id="Layer_2" data-name="Layer 2"><g id="Assets"><path class="cls-1" d="M144.68,43.62s-21-11.67-44.62-5.83"/><path class="cls-1" d="M22.78,77.41C17.28,55.52,4.85,47.1,4.85,47.1"/><path class="cls-2" d="M22.37,57.57a12.66,12.66,0,0,0,6.28-1.37,4.38,4.38,0,0,0,2.43-4,3.94,3.94,0,0,0-.78-2.48,6.85,6.85,0,0,0-2.25-1.79,21.75,21.75,0,0,0-3.67-1.47q-2.2-.69-5-1.51A57.06,57.06,0,0,1,13,42.81a26.6,26.6,0,0,1-6-3.25,15.56,15.56,0,0,1-4.4-5,14.51,14.51,0,0,1-1.7-7.29A16.05,16.05,0,0,1,6.6,14.48q5.68-4.86,16.32-4.86A47.94,47.94,0,0,1,35,11a40.16,40.16,0,0,1,9.4,3.67l-2.84,12A45.81,45.81,0,0,0,32.27,23,34.69,34.69,0,0,0,23,21.64q-7.52,0-7.52,4.86a3.59,3.59,0,0,0,.92,2.43A7.67,7.67,0,0,0,19,30.76a30.12,30.12,0,0,0,3.85,1.47q2.2.69,4.77,1.42a63.17,63.17,0,0,1,6.51,2.2,24.25,24.25,0,0,1,5.78,3.25A15.12,15.12,0,0,1,44,44a14.6,14.6,0,0,1,1.56,7A17.79,17.79,0,0,1,44,58.49a16.55,16.55,0,0,1-4.54,5.87,21.43,21.43,0,0,1-7.33,3.85,33.37,33.37,0,0,1-10,1.38A50,50,0,0,1,9.85,68.11,39.43,39.43,0,0,1,0,64.36l2.75-12.1a51.49,51.49,0,0,0,9.31,3.8A35.38,35.38,0,0,0,22.37,57.57Z"/><path class="cls-2" d="M83,46.48V68.21H68.76V46.39l-20-35.48H64.27L76,33.55,87.46,10.91h15.4Z"/><path class="cls-2" d="M163,39.14a31.86,31.86,0,0,1-2.15,12,24.94,24.94,0,0,1-6.28,9.17,28.15,28.15,0,0,1-10.22,5.87,43.57,43.57,0,0,1-14,2.06H109.83V10.91h21.54a41.42,41.42,0,0,1,13.48,2,27.72,27.72,0,0,1,9.9,5.73,24.49,24.49,0,0,1,6.14,8.89A30.52,30.52,0,0,1,163,39.14Zm-14.67.55q0-8.84-4.45-12.95t-13.43-4.1H124.4V56.47h6.78q8,0,12.56-4.1T148.33,39.69Z"/><line class="cls-1" x1="11.76" y1="77.41" x2="142.86" y2="77.41"/><path class="cls-1" d="M63.35,77.41C63.35,42.29,36.42.91,36.42.91s73.56,4,73.4,76.5"/><path class="cls-1" d="M40.83,77.41c0-30.32-18-60.64-18-60.64a46.14,46.14,0,0,1,26.78,8.5"/><path class="cls-1" d="M4.85,47.1s8.73-7.54,28.83-6.38"/><path class="cls-1" d="M129.41,77.41c4.37-18.41,15.27-33.79,15.27-33.79"/></g></g></svg>