<svg xmlns="http://www.w3.org/2000/svg" viewBox="0 0 635.12 64.28"><defs><style>.cls-1,.cls-2{fill:none;stroke:#1d1d1b;stroke-linecap:round;stroke-width:2px;}.cls-1{stroke-miterlimit:10;}.cls-2{stroke-linejoin:round;}</style></defs><title>Asset 3</title><g id="Layer_2" data-name="Layer 2"><g id="Assets"><path class="cls-1" d="M378.2 62.93h-18.27a4.7 4.7 0 0 1-4.69-4.69V6.06a4.7 4.7 0 0 1 4.69-4.69h21.4A4.69 4.69 0 0 1 386 6.06v8m9.4-12.69h16.71a4.7 4.7 0 0 1 4.69 4.69v52.18a4.7 4.7 0 0 1-4.69 4.69h-21.4a4.69 4.69 0 0 1-4.71-4.69v-8"/><path class="cls-2" d="M41.35 34.57L62 55.17a4.69 4.69 0 0 1-3.32 8H5.69A4.69 4.69 0 0 1 1 58.49V5.54c0-4.18 5.05-6 8-3l20.61 20.29m197.56 40.29h-22a4.69 4.69 0 0 1-4.06-7L231.4 3.39a4.69 4.69 0 0 1 8.12 0l30.34 52.7a4.69 4.69 0 0 1-4.06 7h-19.34a4.69 4.69 0 0 1-4.05-2.33L235.49 49M323 34.41L343.57 55a4.69 4.69 0 0 1-3.32 8h-52.94a4.69 4.69 0 0 1-4.69-4.69V5.7a4.69 4.69 0 0 1 8-3.32l20.61 20.29"/><circle class="cls-1" cx="97.33" cy="32.16" r="30.8"/><path class="cls-1" d="M182.37 45.4l6.22 6.22a3.11 3.11 0 0 1-.2 4.61 30.67 30.67 0 0 1-19 6.75 30.8 30.8 0 1 1-.26-61.61A30.67 30.67 0 0 1 188.27 8a3.15 3.15 0 0 1 .32 4.7l-6.19 6.19"/><path class="cls-2" d="M580.68 35.61l14.25 25.23a4.69 4.69 0 0 0 8.12 0l30.43-52.63a4.69 4.69 0 0 0-4-7l-60.67-.11a4.69 4.69 0 0 0-4.07 7l6.37 10.8a4.69 4.69 0 0 0 4 2.35l11.25.07"/><circle class="cls-1" cx="530.32" cy="32.24" r="30.8"/><path class="cls-2" d="M558.9 21.54h-14.27m-28.94 21.4h-14.26M97.33 28.32v7.71"/><circle class="cls-1" cx="458.78" cy="32.48" r="30.8"/><path class="cls-2" d="M458.78 28.33v7.71"/></g></g></svg>