<svg xmlns="http://www.w3.org/2000/svg" viewBox="0 0 637.68 65.49"><defs><style>.cls-1{fill:#c980ea;}.cls-2{fill:#74de7d;}.cls-3{fill:#ede600;}.cls-4{fill:#79b9f6;}.cls-5{fill:#efb348;}.cls-6,.cls-7{fill:none;stroke:#1d1d1b;stroke-linecap:round;}.cls-6{stroke-miterlimit:10;}.cls-7{stroke-linejoin:round;}</style></defs><title>Asset 1</title><g id="Layer_2" data-name="Layer 2"><g id="Assets"><path class="cls-1" d="M191.18,55.9a30.7,30.7,0,0,1-20.87,9,30.8,30.8,0,0,1-2.12-61.57,30.69,30.69,0,0,1,21.08,7.19l-18,21.4a3.13,3.13,0,0,0,.18,4.21Z"/><path class="cls-2" d="M567.59,3.56a4.69,4.69,0,0,0-4.06,7l30.34,52.54a4.69,4.69,0,0,0,8.12,0L632.33,10.6a4.69,4.69,0,0,0-4.06-7Z"/><circle class="cls-3" cx="97.4" cy="33.85" r="30.8"/><rect class="cls-3" x="354.4" y="3.29" width="62.33" height="61.74" rx="3.09" ry="3.09"/><path class="cls-4" d="M323.06,36.57l20.61,20.61a4.69,4.69,0,0,1-3.32,8H287.4a4.69,4.69,0,0,1-4.69-4.69V7.55a4.69,4.69,0,0,1,8-3.32l20.61,20.61"/><path class="cls-2" d="M40.35,36.42,61,57a4.69,4.69,0,0,1-3.32,8H4.69A4.69,4.69,0,0,1,0,60.34V7.39A4.69,4.69,0,0,1,8,4.08L28.61,24.68"/><circle class="cls-1" cx="459.19" cy="33.87" r="30.8"/><circle class="cls-5" cx="529.63" cy="34.25" r="30.8"/><path class="cls-5" d="M227.26,65.13h-22a4.69,4.69,0,0,1-4.06-7L231.5,5.55a4.69,4.69,0,0,1,8.12,0L270,58.09a4.69,4.69,0,0,1-4.06,7h-22"/><path class="cls-6" d="M381.27,62.43H363a4.7,4.7,0,0,1-4.69-4.69V5.56A4.7,4.7,0,0,1,363,.87h21.4a4.69,4.69,0,0,1,4.69,4.69v8"/><path class="cls-6" d="M398.46.87h16.71a4.7,4.7,0,0,1,4.69,4.69V57.74a4.7,4.7,0,0,1-4.69,4.69h-21.4a4.69,4.69,0,0,1-4.69-4.69v-8"/><path class="cls-7" d="M44.41,34.07,65,54.67a4.69,4.69,0,0,1-3.32,8H8.75A4.69,4.69,0,0,1,4.06,58V5c0-4.18,5.05-6,8-3L32.67,22.33"/><path class="cls-7" d="M230.23,62.62h-22a4.69,4.69,0,0,1-4.06-7l30.34-52.7a4.69,4.69,0,0,1,8.12,0l30.34,52.7a4.69,4.69,0,0,1-4.06,7H249.52a4.69,4.69,0,0,1-4.05-2.33l-6.92-11.84"/><path class="cls-7" d="M326,33.91l20.61,20.61a4.69,4.69,0,0,1-3.32,8H290.37a4.69,4.69,0,0,1-4.69-4.69V5.2a4.69,4.69,0,0,1,8-3.32l20.61,20.29"/><circle class="cls-6" cx="100.39" cy="31.66" r="30.8"/><path class="cls-6" d="M185.43,44.9l6.22,6.22a3.11,3.11,0,0,1-.2,4.61,30.67,30.67,0,0,1-19,6.75A30.8,30.8,0,1,1,172.2.87a30.67,30.67,0,0,1,19.13,6.66,3.15,3.15,0,0,1,.32,4.7l-6.19,6.19"/><path class="cls-7" d="M583.74,35.11,598,60.34a4.69,4.69,0,0,0,8.12,0L636.54,7.71a4.69,4.69,0,0,0-4-7L571.82.56a4.69,4.69,0,0,0-4.07,7l6.37,10.8a4.69,4.69,0,0,0,4,2.35l11.25.07"/><circle class="cls-6" cx="533.38" cy="31.74" r="30.8"/><line class="cls-7" x1="561.96" y1="21.04" x2="547.69" y2="21.04"/><line class="cls-7" x1="518.75" y1="42.44" x2="504.49" y2="42.44"/><line class="cls-7" x1="100.39" y1="27.82" x2="100.39" y2="35.53"/><circle class="cls-6" cx="461.84" cy="31.98" r="30.8"/><line class="cls-7" x1="461.84" y1="27.83" x2="461.84" y2="35.54"/></g></g></svg>