<svg xmlns="http://www.w3.org/2000/svg" viewBox="0 0 639 66" class="logo" aria-role="img">
  <title>Localhost</title>
  <desc>The text "Localhost" with black outlined letters and multi-coloured letter shaped blocks underneath.</desc>

  <g class="blocks">
    <path class="block purple" fill="#C980EA" d="M191.18 55.06c-5.55 5.56-13.018 8.78-20.87 9-17.002.586-31.26-12.723-31.845-29.725S151.188 3.075 168.19 2.49c7.68-.328 15.202 2.238 21.08 7.19L171.3 31c-1.035 1.24-.957 3.063.18 4.21l19.7 19.85z"/>
    <path class="block green" fill="#74DE7D" d="M567.59 2.72c-1.664.008-3.2.897-4.035 2.337-.835 1.44-.845 3.215-.024 4.663l30.34 52.58c.84 1.45 2.39 2.343 4.06 2.343 1.68 0 3.227-.893 4.066-2.343l30.34-52.54c.82-1.448.81-3.223-.024-4.663-.835-1.44-2.37-2.33-4.036-2.337l-60.682-.04z"/>
    <circle class="block yellow" cx="97.4" cy="33.01" r="30.8" fill="#EDE600"/>
    <path class="block yellow" fill="#EDE600" d="M357.49 2.45h56.15c1.706 0 3.09 1.383 3.09 3.09V61.1c0 1.707-1.384 3.09-3.09 3.09h-56.15c-1.707 0-3.09-1.383-3.09-3.09V5.54c0-1.707 1.383-3.09 3.09-3.09z"/>
    <path class="block blue" fill="#79B9F6" d="M323.06 35.74l20.61 20.61c1.337 1.342 1.735 3.356 1.01 5.106-.727 1.75-2.435 2.893-4.33 2.893H287.4c-2.59 0-4.69-2.1-4.69-4.69V6.71c0-1.895 1.142-3.603 2.893-4.33 1.75-.726 3.765-.327 5.107 1.01L311.33 24"/>
    <path class="block green" fill="#74DE7D" d="M40.35 35.58L61 56.18c1.337 1.343 1.735 3.357 1.01 5.107-.728 1.75-2.436 2.892-4.33 2.893H4.69C2.104 64.18.005 62.086 0 59.5V6.55c.005-1.893 1.148-3.597 2.897-4.32S6.66 1.903 8 3.24l20.61 20.6"/>
    <circle class="block purple" cx="459.19" cy="33.03" r="30.8" fill="#C980EA"/>
    <circle class="block orange" cx="529.63" cy="33.41" r="30.8" fill="#EFB348"/>
    <path class="block orange" fill="#EFB348" d="M227.26 64.29h-22c-1.664-.008-3.2-.897-4.035-2.337s-.844-3.215-.024-4.663l30.3-52.58c.84-1.45 2.39-2.342 4.06-2.342s3.227.893 4.06 2.342L270 57.25c.82 1.45.81 3.223-.024 4.663-.835 1.44-2.37 2.33-4.036 2.337h-22"/>
  </g>

  <g class="lines" transform="translate(4.000000, 0.000000)" stroke-linecap="round" stroke="#1D1D1B" stroke-width="2" stroke-linejoin="round">
    <g>
      <path class="line line-1" d="M40.41,33.57 L61,54.17 C62.3372814,55.5123914 62.735431,57.5275966 62.0091408,59.2776934 C61.2828506,61.0277903 59.574818,62.1689299 57.68,62.17 L4.75,62.17 C2.15978452,62.17 0.06,60.0702155 0.06,57.48 L0.06,4.54 C0.06,0.36 5.11,-1.46 8.06,1.54 L28.67,21.83" id="line-1"></path>
    </g>
    <g transform="translate(65.000000, 0.000000)">
      <path class="line line-2" d="M31,27.32 L31,35.03" id="line-3" fill="#000000"></path>
      <circle class="line line-3" id="line-2" cx="31.39" cy="31.16" r="30.8"></circle>
    </g>
    <g transform="translate(137.000000, 0.000000)">
      <path class="line line-4" d="M44.43,44.4 L50.65,50.62 C51.2761541,51.2373534 51.6117059,52.0909192 51.5735936,52.9694075 C51.5354813,53.8478958 51.1272673,54.6691941 50.45,55.23 C45.0584176,59.5570581 38.3630765,61.9356662 31.45,61.98 C14.4368683,62.051797 0.586797017,48.3181317 0.515,31.305 C0.443202983,14.2918683 14.1768683,0.441797017 31.19,0.37 C38.1367374,0.348614832 44.8849609,2.68616561 50.33,7 C51.0422872,7.550685 51.4848905,8.37984125 51.5460485,9.27809883 C51.6072065,10.1763564 51.281073,11.0578522 50.65,11.7 L44.46,17.89" id="line-4"></path>
    </g>
    <g transform="translate(199.000000, 0.000000)">
      <path class="line line-5" d="M27.23,62.12 L5.23,62.12 C3.56549384,62.1123204 2.02976354,61.2229728 1.1946418,59.7831078 C0.359520059,58.3432427 0.350142166,56.5686107 1.17,55.12 L31.51,2.42 C32.3482206,0.970527291 33.8956091,0.0778713764 35.57,0.0778713764 C37.2443909,0.0778713764 38.7917794,0.970527291 39.63,2.42 L69.97,55.12 C70.7898578,56.5686107 70.7804799,58.3432427 69.9453582,59.7831078 C69.1102365,61.2229728 67.5745062,62.1123204 65.91,62.12 L46.52,62.12 C44.8516752,62.1189462 43.309498,61.2317183 42.47,59.79 L35.55,48" id="line-5"></path>
    </g>
    <g transform="translate(281.000000, 0.000000)">
      <path class="line line-6" d="M41,33.41 L61.63,54 C62.9672814,55.3423914 63.365431,57.3575966 62.6391408,59.1076934 C61.9128506,60.8577903 60.204818,61.9989299 58.31,62 L5.37,62 C2.77978452,62 0.68,59.9002155 0.68,57.31 L0.68,4.7 C0.681070148,2.80518202 1.82220975,1.0971494 3.57230657,0.370859212 C5.3224034,-0.355430971 7.33760859,0.0427185629 8.68,1.38 L29.29,21.67" id="line-6"></path>
    </g>
    <g transform="translate(354.000000, 0.000000)">
      <path class="line line-7" d="M40.46,0.37 L57.17,0.37 C59.7579337,0.375500409 61.8544996,2.47206629 61.86,5.06 L61.86,57.24 C61.8544996,59.8279337 59.7579337,61.9244996 57.17,61.93 L35.77,61.93 C33.1797845,61.93 31.08,59.8302155 31.08,57.24 L31.08,49.24" id="line-8"></path>
      <path class="line line-8" d="M23.27,61.93 L5,61.93 C2.41206629,61.9244996 0.315500409,59.8279337 0.31,57.24 L0.31,5.06 C0.315500409,2.47206629 2.41206629,0.375500409 5,0.37 L26.4,0.37 C28.9902155,0.37 31.09,2.46978452 31.09,5.06 L31.09,13.06" id="line-7"></path>
    </g>
    <g transform="translate(427.000000, 0.000000)">
      <path class="line line-9" d="M30,27.33 L30,35.04" id="line-10" fill="#000000"></path>
      <circle class="line line-10" id="line-9" cx="30.84" cy="31.48" r="30.8"></circle>
    </g>
    <g transform="translate(499.000000, 0.000000)">
      <path class="line line-11" d="M17.13,41.94 L4.82,41.94 C4.1658561,41.9390857 3.5526082,42.2581238 3.17788237,42.7943007 C2.80315653,43.3304775 2.7143195,44.0160184 2.94,44.63 C4.94,50.14 11.41,62.2 30.64,62.2 C46.51,62.2 57.83,50.2 59.29,34.78" id="line-12"></path>
      <path class="line line-12" d="M43,20.31 L55.31,20.31 C55.9641439,20.3109143 56.5773918,19.9918762 56.9521176,19.4556993 C57.3268435,18.9195225 57.4156805,18.2339816 57.19,17.62 C55.19,12.11 48.72,0.05 29.49,0.05 C13.62,0.05 2.3,12.05 0.84,27.47" id="line-11"></path>
    </g>
    <g transform="translate(563.000000, 0.000000)">
      <path class="line line-13" d="M16.74,34.61 L31,59.84 C31.8382206,61.2894727 33.3856091,62.1821286 35.06,62.1821286 C36.7343909,62.1821286 38.2817794,61.2894727 39.12,59.84 L69.54,7.21 C70.3549145,5.77066193 70.351416,4.00849513 69.5307926,2.57240423 C68.7101692,1.13631332 67.193771,0.23866064 65.54,0.21 L4.87,0.1 C3.20370722,0.104141985 1.66472914,0.992089159 0.827177952,2.43259489 C-0.0103732403,3.87310063 -0.0207190511,5.64983828 0.8,7.1 L7.17,17.9 C7.99542206,19.3341099 9.51546982,20.227138 11.17,20.25 L22.42,20.32" id="line-13"></path>
    </g>
  </g>
</svg>
