<svg xmlns="http://www.w3.org/2000/svg" viewBox="0 0 30 26">
  <g fill="none" fill-rule="evenodd" transform="translate(0 1)">
    <path fill="#E52D27" d="M9.196 15.064v-6.36l6.262 3.19-6.262 3.17zM22.946 7.6s-.225-1.56-.92-2.246c-.882-.902-1.87-.907-2.323-.96-3.243-.228-8.11-.228-8.11-.228h-.01s-4.864 0-8.108.23c-.453.05-1.44.056-2.322.958C.458 6.04.233 7.6.233 7.6S0 9.434 0 11.266v1.717c0 1.832.232 3.664.232 3.664s.226 1.56.92 2.248c.883.9 2.04.873 2.557.967 1.852.175 7.88.23 7.88.23s4.87-.008 8.112-.237c.453-.053 1.44-.058 2.323-.96.695-.686.92-2.247.92-2.247s.233-1.832.233-3.664v-1.717c0-1.832-.233-3.664-.233-3.664z"/>
    <ellipse cx="16.506" cy="12.115" stroke="#000" stroke-width="1.4" rx="12.292" ry="12.115"/>
  </g>
</svg>
