<svg xmlns="http://www.w3.org/2000/svg" viewBox="88 -1 32 28">
  <g fill="none" fill-rule="evenodd" transform="translate(89.202)">
    <path fill="#ED1C40" d="M24.835 17.343c.002 2.448-1.796 4.556-4.24 4.97-.308.053-.62.083-.93.08-.106 0-.148.04-.18.135-.49 1.374-1.463 2.193-2.934 2.4-.97.136-1.85-.12-2.63-.716-.1-.084-.17-.085-.28-.006-.9.635-1.92.916-3.03.85-2.16-.128-3.98-1.75-4.32-3.84-.02-.144-.04-.29-.05-.436 0-.12-.05-.167-.16-.19-.65-.125-1.25-.39-1.77-.792-.96-.74-1.54-1.708-1.68-2.905-.15-1.37.28-2.554 1.26-3.54.08-.08.09-.135.03-.228-.38-.647-.55-1.347-.53-2.09C3.46 9.182 4.77 7.65 6.6 7.27c.213-.043.324-.124.417-.32.903-1.907 2.418-3.067 4.52-3.45 1.477-.268 2.87.02 4.16.765.11.063.2.068.32.035 2.05-.584 3.87-.16 5.413 1.28.91.85 1.41 1.928 1.56 3.156.03.27.045.54.025.81-.01.102.024.145.12.18.927.337 1.565.963 1.844 1.89.35 1.15.06 2.16-.82 3-.07.074-.06.12-.01.192.46.783.7 1.627.7 2.535zm-9.157-.393c0 1.042.682 1.962 1.65 2.275.484.157.984.23 1.49.253.363.015.725-.01 1.06-.173.262-.13.386-.342.374-.625-.01-.286-.142-.5-.42-.613-.097-.04-.195-.07-.298-.09-.307-.052-.616-.098-.92-.157-.505-.098-.717-.36-.723-.86 0-.442.12-.86.26-1.272.26-.756.6-1.476.93-2.2.32-.702.65-1.398.88-2.136.13-.405.18-.812.07-1.23-.17-.638-.56-1.064-1.23-1.187-.61-.112-1.22-.125-1.78.234-.18.11-.36.09-.52-.05l-.36-.33c-.56-.52-1.31-.54-1.92-.07-.24.19-.45.42-.72.59-.24.14-.48.19-.74.05-.25-.13-.51-.25-.77-.36-.26-.12-.51-.26-.81-.29-.93-.08-1.91.46-2.33 1.29-.18.37-.33.75-.47 1.13-.65 1.77-1.18 3.58-1.74 5.39-.24.81.05 1.6.75 2.04.546.34 1.14.42 1.758.24.5-.15.774-.55.965-.99.635-1.47 1.21-2.97 1.81-4.45.17-.41.33-.82.51-1.22.18-.41.69-.55.995-.28.18.16.23.38.21.62-.02.25-.12.48-.21.71-.394.98-.796 1.95-1.192 2.93-.08.19-.165.39-.2.6-.06.36.086.682.39.81.31.13.63.152.95.04.376-.135.6-.42.77-.753l1.77-3.42c.27-.523.55-1.05.83-1.57.1-.19.224-.375.417-.496.173-.11.36-.117.54-.02.174.09.185.27.18.44-.006.094-.03.185-.07.27-.076.18-.147.36-.23.54-.49 1.01-.99 2.02-1.476 3.038-.208.43-.42.86-.396 1.31zm6.89 7.468c.002-.672-.573-1.234-1.264-1.236-.708-.002-1.283.554-1.286 1.243-.003.674.58 1.246 1.272 1.247.7 0 1.277-.565 1.278-1.254zm-21.365-10.3c.667 0 1.227-.545 1.225-1.193-.003-.65-.552-1.187-1.213-1.19-.678 0-1.215.526-1.215 1.192 0 .658.537 1.19 1.203 1.19zM16.13.793c-.67-.003-1.217.522-1.22 1.173-.005.65.54 1.184 1.206 1.185.664 0 1.197-.52 1.198-1.17.002-.65-.526-1.18-1.184-1.18zm9.862 7.37c-.003-.54-.472-1-1.025-1.002-.564 0-1.042.47-1.038 1.02 0 .55.45.99 1.02 1 .58 0 1.04-.44 1.04-1zM4.86 5.283c0 .506.402.903.916.904.52 0 .924-.4.922-.913-.002-.5-.405-.89-.917-.888-.52 0-.92.385-.92.896zm9.62 20.906c.006-.43-.348-.77-.784-.78-.447 0-.798.34-.797.77 0 .42.35.76.79.76.43 0 .78-.34.79-.77zm12.287-12c-.418-.01-.78.35-.778.76 0 .4.34.74.76.74.44 0 .76-.32.76-.74s-.34-.76-.76-.76zM8.392.04c-.37 0-.653.275-.653.635 0 .357.28.636.65.634.36 0 .64-.28.64-.64S8.75.04 8.39.03zm19.835 10.74c-.3-.002-.573.26-.577.56-.004.31.258.567.578.568.318.004.567-.24.57-.55.003-.317-.25-.57-.57-.574zM5.46 21.92c0-.3-.262-.557-.572-.56-.314-.003-.572.256-.57.572.003.308.258.55.575.55.312-.003.566-.254.567-.562z"/>
    <path fill="#FFF" d="M15.678 16.95c0 1.042.682 1.962 1.65 2.275.484.157.984.23 1.49.253.363.015.725-.01 1.06-.173.262-.13.386-.342.374-.625-.01-.286-.142-.5-.42-.613-.097-.04-.195-.07-.298-.09-.307-.052-.616-.098-.92-.157-.505-.098-.717-.36-.723-.86 0-.442.12-.86.26-1.272.26-.756.6-1.476.93-2.2.32-.702.65-1.398.88-2.136.13-.405.18-.812.07-1.23-.17-.638-.56-1.064-1.23-1.187-.61-.112-1.22-.125-1.78.234-.18.11-.36.09-.52-.05l-.36-.33c-.56-.52-1.31-.54-1.92-.07-.24.19-.45.42-.72.59-.24.14-.48.19-.74.05-.25-.13-.51-.25-.77-.36-.26-.12-.51-.26-.81-.29-.93-.08-1.91.46-2.33 1.29-.18.37-.33.75-.47 1.13-.65 1.77-1.18 3.58-1.74 5.39-.24.81.05 1.6.75 2.04.546.34 1.14.42 1.758.24.5-.15.774-.55.965-.99.635-1.47 1.21-2.97 1.81-4.45.17-.41.33-.82.51-1.22.18-.41.69-.55.995-.28.18.16.23.38.21.62-.02.25-.12.48-.21.71-.394.98-.796 1.95-1.192 2.93-.08.19-.165.39-.2.6-.06.36.086.682.39.81.31.13.63.152.95.04.376-.135.6-.42.77-.753l1.77-3.42c.27-.523.55-1.05.83-1.57.1-.19.224-.375.417-.496.173-.11.36-.117.54-.02.174.09.185.27.18.44-.006.094-.03.185-.07.27-.076.18-.147.36-.23.54-.49 1.01-.99 2.02-1.476 3.038-.208.43-.42.86-.396 1.31z"/>
    <ellipse cx="16.506" cy="12.808" stroke="#000" stroke-width="1.4" rx="12.292" ry="12.115"/>
  </g>
</svg>
