<svg xmlns="http://www.w3.org/2000/svg" viewBox="217 1107 802 19">
  <g fill="#FFF" fill-rule="evenodd" stroke="#FFF">
    <path d="M1010 1109l8 16h-16zM994 1109l8 16h-16zM978 1109l8 16h-16zM962 1109l8 16h-16zM946 1109l8 16h-16zM930 1109l8 16h-16zM914 1109l8 16h-16zM898 1109l8 16h-16zM882 1109l8 16h-16zM866 1109l8 16h-16zM850 1109l8 16h-16zM834 1109l8 16h-16zM818 1109l8 16h-16zM802 1109l8 16h-16zM786 1109l8 16h-16zM770 1109l8 16h-16zM754 1109l8 16h-16zM738 1109l8 16h-16zM722 1109l8 16h-16zM706 1109l8 16h-16zM690 1109l8 16h-16zM674 1109l8 16h-16zM658 1109l8 16h-16zM642 1109l8 16h-16zM626 1109l8 16h-16zM610 1109l8 16h-16zM594 1109l8 16h-16zM578 1109l8 16h-16zM562 1109l8 16h-16zM546 1109l8 16h-16zM530 1109l8 16h-16zM514 1109l8 16h-16zM498 1109l8 16h-16zM482 1109l8 16h-16zM466 1109l8 16h-16zM450 1109l8 16h-16zM434 1109l8 16h-16zM418 1109l8 16h-16zM402 1109l8 16h-16zM386 1109l8 16h-16zM370 1109l8 16h-16zM354 1109l8 16h-16zM338 1109l8 16h-16zM322 1109l8 16h-16zM306 1109l8 16h-16zM290 1109l8 16h-16zM274 1109l8 16h-16zM258 1109l8 16h-16zM242 1109l8 16h-16zM226 1109l8 16h-16z"/>
  </g>
</svg>
