<svg xmlns="http://www.w3.org/2000/svg" viewBox="247 709 952 17">
  <g fill="#FFFFFF" fill-rule="evenodd">
    <path d="M1172.095 710l26.414 16h-52.83"/>
    <path d="M1119.267 710l26.414 16h-52.822m-26.415-16l26.414 16h-52.828m-26.415-16l26.416 16H987.2m-26.414-16l26.414 16h-52.83m-26.415-16l26.414 16h-52.83m-26.418-16l26.414 16h-52.83m-26.413-16l26.414 16h-52.83"/>
    <path d="M749.47 710l26.413 16h-52.828m-26.415-16l26.415 16h-52.828m-26.414-16l26.414 16H617.4m-26.415-16l26.414 16h-52.83"/>
    <path d="M538.157 710l26.414 16h-52.82m-26.416-16l26.415 16h-52.83m-26.42-16l26.414 16h-52.828m-26.414-16l26.414 16h-52.828m-26.414-16l26.414 16H300.43m-26.414-16l26.414 16h-52.828"/>
  </g>
</svg>
