
<svg width="802px" height="19px" viewBox="217 1107 802 19" version="1.1" xmlns="http://www.w3.org/2000/svg" xmlns:xlink="http://www.w3.org/1999/xlink">
    <!-- Generator: Sketch 39.1 (31720) - http://www.bohemiancoding.com/sketch -->
    <desc>Created with Sketch.</desc>
    <defs></defs>
    <g id="Group-3" stroke="none" stroke-width="1" fill="none" fill-rule="evenodd" transform="translate(218.000000, 1109.000000)">
        <g id="Group-2" fill="#FFFFFF" stroke="#FFFFFF">
            <g id="Group">
                <polygon id="Triangle-2-Copy-50" points="792 0 800 16 784 16"></polygon>
                <polygon id="Triangle-2-Copy-49" points="776 0 784 16 768 16"></polygon>
                <polygon id="Triangle-2-Copy-48" points="760 0 768 16 752 16"></polygon>
                <polygon id="Triangle-2-Copy-47" points="744 0 752 16 736 16"></polygon>
                <polygon id="Triangle-2-Copy-46" points="728 0 736 16 720 16"></polygon>
                <polygon id="Triangle-2-Copy-45" points="712 0 720 16 704 16"></polygon>
                <polygon id="Triangle-2-Copy-44" points="696 0 704 16 688 16"></polygon>
                <polygon id="Triangle-2-Copy-43" points="680 0 688 16 672 16"></polygon>
                <polygon id="Triangle-2-Copy-42" points="664 0 672 16 656 16"></polygon>
                <polygon id="Triangle-2-Copy-41" points="648 0 656 16 640 16"></polygon>
                <polygon id="Triangle-2-Copy-40" points="632 0 640 16 624 16"></polygon>
                <polygon id="Triangle-2-Copy-39" points="616 0 624 16 608 16"></polygon>
                <polygon id="Triangle-2-Copy-38" points="600 0 608 16 592 16"></polygon>
                <polygon id="Triangle-2-Copy-37" points="584 0 592 16 576 16"></polygon>
                <polygon id="Triangle-2-Copy-36" points="568 0 576 16 560 16"></polygon>
                <polygon id="Triangle-2-Copy-35" points="552 0 560 16 544 16"></polygon>
                <polygon id="Triangle-2-Copy-34" points="536 0 544 16 528 16"></polygon>
                <polygon id="Triangle-2-Copy-33" points="520 0 528 16 512 16"></polygon>
                <polygon id="Triangle-2-Copy-32" points="504 0 512 16 496 16"></polygon>
                <polygon id="Triangle-2-Copy-31" points="488 0 496 16 480 16"></polygon>
                <polygon id="Triangle-2-Copy-30" points="472 0 480 16 464 16"></polygon>
                <polygon id="Triangle-2-Copy-29" points="456 0 464 16 448 16"></polygon>
                <polygon id="Triangle-2-Copy-28" points="440 0 448 16 432 16"></polygon>
                <polygon id="Triangle-2-Copy-27" points="424 0 432 16 416 16"></polygon>
                <polygon id="Triangle-2-Copy-26" points="408 0 416 16 400 16"></polygon>
                <polygon id="Triangle-2-Copy-25" points="392 0 400 16 384 16"></polygon>
                <polygon id="Triangle-2-Copy-24" points="376 0 384 16 368 16"></polygon>
                <polygon id="Triangle-2-Copy-23" points="360 0 368 16 352 16"></polygon>
                <polygon id="Triangle-2-Copy-22" points="344 0 352 16 336 16"></polygon>
                <polygon id="Triangle-2-Copy-21" points="328 0 336 16 320 16"></polygon>
                <polygon id="Triangle-2-Copy-20" points="312 0 320 16 304 16"></polygon>
                <polygon id="Triangle-2-Copy-19" points="296 0 304 16 288 16"></polygon>
                <polygon id="Triangle-2-Copy-18" points="280 0 288 16 272 16"></polygon>
                <polygon id="Triangle-2-Copy-17" points="264 0 272 16 256 16"></polygon>
                <polygon id="Triangle-2-Copy-16" points="248 0 256 16 240 16"></polygon>
                <polygon id="Triangle-2-Copy-15" points="232 0 240 16 224 16"></polygon>
                <polygon id="Triangle-2-Copy-14" points="216 0 224 16 208 16"></polygon>
                <polygon id="Triangle-2-Copy-13" points="200 0 208 16 192 16"></polygon>
                <polygon id="Triangle-2-Copy-12" points="184 0 192 16 176 16"></polygon>
                <polygon id="Triangle-2-Copy-11" points="168 0 176 16 160 16"></polygon>
                <polygon id="Triangle-2-Copy-10" points="152 0 160 16 144 16"></polygon>
                <polygon id="Triangle-2-Copy-9" points="136 0 144 16 128 16"></polygon>
                <polygon id="Triangle-2-Copy-8" points="120 0 128 16 112 16"></polygon>
                <polygon id="Triangle-2-Copy-7" points="104 0 112 16 96 16"></polygon>
                <polygon id="Triangle-2-Copy-6" points="88 0 96 16 80 16"></polygon>
                <polygon id="Triangle-2-Copy-5" points="72 0 80 16 64 16"></polygon>
                <polygon id="Triangle-2-Copy-4" points="56 0 64 16 48 16"></polygon>
                <polygon id="Triangle-2-Copy-3" points="40 0 48 16 32 16"></polygon>
                <polygon id="Triangle-2-Copy" points="24 0 32 16 16 16"></polygon>
                <polygon id="Triangle-2" points="8 0 16 16 0 16"></polygon>
            </g>
        </g>
    </g>
</svg>
