<svg xmlns="http://www.w3.org/2000/svg" viewBox="56.25 73.84 187.5 152.35">
  <path fill="#1DA1F2" d="M115.22 226.2c70.75 0 109.45-58.63 109.45-109.46 0-1.67 0-3.32-.1-4.97 7.52-5.45 14.02-12.2 19.18-19.92-7.02 3.1-14.47 5.15-22.1 6.05 8.04-4.8 14.05-12.36 16.92-21.27-7.55 4.48-15.8 7.64-24.43 9.33-14.57-15.5-38.94-16.23-54.43-1.67-9.98 9.4-14.22 23.4-11.12 36.75-30.93-1.55-59.75-16.16-79.28-40.2-10.2 17.58-5 40.07 11.9 51.36-6.1-.17-12.1-1.82-17.45-4.8v.48c0 18.3 12.9 34.1 30.86 37.7-5.65 1.56-11.6 1.78-17.36.67 5.04 15.67 19.48 26.4 35.94 26.72-13.62 10.7-30.45 16.5-47.77 16.5-3.05 0-6.1-.2-9.15-.56 17.6 11.3 38.06 17.3 58.96 17.26"/>
</svg>
