<?xml version="1.0" encoding="utf-8"?>
<!-- Generator: Adobe Illustrator 15.0.2, SVG Export Plug-In . SVG Version: 6.00 Build 0)  -->
<!DOCTYPE svg PUBLIC "-//W3C//DTD SVG 1.1//EN" "http://www.w3.org/Graphics/SVG/1.1/DTD/svg11.dtd">
<svg version="1.1" id="Logo_FIXED" xmlns="http://www.w3.org/2000/svg" xmlns:xlink="http://www.w3.org/1999/xlink" x="0px" y="0px"
	 width="187.5px" height="152.354px" viewBox="56.25 73.839 187.5 152.354" enable-background="new 56.25 73.839 187.5 152.354"
	 xml:space="preserve">
<title>Twitter_Logo_Blue</title>
<path fill="#1DA1F2" d="M115.215,226.192c70.756,0,109.455-58.62,109.455-109.455c0-1.665,0-3.322-0.112-4.972
	c7.528-5.446,14.027-12.188,19.192-19.913c-7.021,3.111-14.469,5.151-22.096,6.052c8.031-4.808,14.041-12.369,16.913-21.277
	c-7.552,4.481-15.812,7.639-24.427,9.337c-14.569-15.491-38.938-16.239-54.43-1.67c-9.99,9.396-14.229,23.396-11.128,36.755
	c-30.931-1.55-59.749-16.16-79.283-40.192c-10.21,17.577-4.995,40.064,11.91,51.353c-6.122-0.182-12.11-1.833-17.46-4.815
	c0,0.158,0,0.322,0,0.487c0.005,18.312,12.913,34.084,30.862,37.709c-5.663,1.545-11.605,1.771-17.37,0.66
	c5.04,15.672,19.481,26.406,35.94,26.715c-13.622,10.707-30.45,16.518-47.775,16.5c-3.061-0.006-6.119-0.19-9.158-0.555
	c17.592,11.29,38.062,17.278,58.965,17.25"/>
</svg>
