<svg xmlns="http://www.w3.org/2000/svg" viewBox="125 -1 43 37">
  <path fill="#1DA1F2" fill-rule="evenodd" d="M136.024 34.9c13.173 0 20.377-10.914 20.377-20.377 0-.31 0-.62-.02-.926 1.405-1.014 2.615-2.27 3.576-3.707-1.307.58-2.693.96-4.113 1.126 1.496-.895 2.615-2.302 3.15-3.96-1.406.833-2.944 1.42-4.55 1.738-2.71-2.884-7.247-3.024-10.13-.31-1.86 1.748-2.65 4.354-2.073 6.84-5.76-.287-11.124-3.007-14.76-7.48-1.9 3.27-.93 7.457 2.216 9.56-1.14-.035-2.254-.342-3.25-.897v.09c0 3.41 2.404 6.346 5.745 7.02-1.053.288-2.16.33-3.233.124.94 2.92 3.627 4.92 6.69 4.977-2.535 1.993-5.667 3.075-8.893 3.072-.57 0-1.138-.036-1.704-.104 3.274 2.1 7.085 3.216 10.977 3.21"/>
  <circle cx="149.5" cy="17.5" r="17.5" fill="none" stroke="#000" stroke-width="2"/>
</svg>
