<svg xmlns="http://www.w3.org/2000/svg" viewBox="110 0 43 39">
  <title>Follow Localhost on Meetup</title>
  <desc>White stylised letter "M" on a red background, with a black stroked transparent circle positioned over the top</desc>
  <path fill="#ED1C40" fill-rule="evenodd" d="M146.358 25.05c.003 3.537-2.556 6.582-6.037 7.18-.43.076-.88.12-1.32.116-.15-.002-.21.058-.25.195-.69 1.99-2.08 3.17-4.17 3.47-1.38.2-2.64-.17-3.74-1.03-.15-.12-.24-.12-.4-.01-1.29.92-2.73 1.33-4.31 1.23-3.08-.18-5.67-2.53-6.15-5.55-.03-.21-.07-.42-.07-.63-.002-.17-.07-.24-.24-.27-.93-.18-1.78-.56-2.522-1.14-1.376-1.07-2.2-2.47-2.39-4.19-.22-1.97.393-3.69 1.79-5.11.11-.11.12-.19.04-.33-.54-.93-.79-1.94-.75-3.01.106-2.67 1.978-4.89 4.58-5.43.3-.063.46-.18.59-.464 1.287-2.753 3.44-4.43 6.438-4.98 2.1-.39 4.084.027 5.92 1.104.15.09.28.1.45.05 2.92-.848 5.51-.23 7.707 1.85 1.3 1.23 2.01 2.78 2.22 4.56.05.382.07.78.04 1.17-.01.14.035.203.176.26 1.314.48 2.222 1.39 2.62 2.722.494 1.666.08 3.125-1.17 4.34-.11.104-.087.17-.02.274.66 1.13 1 2.35 1 3.66zm-13.037-.567c.01 1.505.98 2.834 2.35 3.286.69.22 1.4.33 2.13.36.52.02 1.03-.02 1.51-.25.38-.19.55-.5.54-.91-.01-.41-.2-.72-.6-.89-.13-.06-.27-.11-.42-.13-.43-.08-.87-.15-1.31-.23-.72-.15-1.02-.52-1.03-1.25 0-.64.17-1.24.37-1.84.36-1.09.85-2.13 1.32-3.18.45-1.01.93-2.02 1.24-3.088.18-.583.26-1.17.1-1.776-.24-.92-.79-1.537-1.75-1.714-.87-.16-1.74-.18-2.53.34-.26.17-.51.13-.74-.07-.17-.15-.34-.313-.51-.47-.802-.74-1.87-.78-2.74-.1-.35.275-.64.614-1.02.85-.34.21-.68.27-1.052.074-.36-.19-.73-.353-1.1-.52-.37-.17-.73-.376-1.16-.41-1.33-.115-2.72.67-3.31 1.87-.26.53-.47 1.08-.672 1.634-.935 2.56-1.694 5.18-2.48 7.785-.353 1.166.06 2.313 1.055 2.944.778.49 1.626.61 2.5.35.716-.215 1.105-.785 1.378-1.425.906-2.124 1.72-4.28 2.58-6.424.24-.59.47-1.18.72-1.76.257-.586.987-.79 1.42-.4.265.24.335.558.31.897-.03.36-.17.696-.3 1.03-.563 1.41-1.135 2.82-1.7 4.23-.114.284-.24.567-.29.87-.085.53.124.995.556 1.18.44.19.9.22 1.354.054.53-.19.85-.603 1.097-1.082l2.52-4.936c.39-.76.788-1.517 1.18-2.27.15-.28.32-.547.6-.72.25-.157.52-.17.774-.027.25.14.262.39.252.64 0 .13-.04.265-.09.39-.11.26-.21.52-.33.78-.7 1.46-1.41 2.92-2.11 4.386-.29.62-.6 1.246-.56 1.897zm9.81 10.788c.01-.97-.81-1.78-1.8-1.78-1 0-1.82.8-1.83 1.8 0 .98.83 1.8 1.82 1.8 1 .01 1.82-.81 1.82-1.81zM112.72 20.4c.95.002 1.747-.787 1.743-1.723-.004-.937-.785-1.714-1.726-1.717-.964-.002-1.73.76-1.73 1.72 0 .95.765 1.718 1.714 1.72zm21.25-19.245c-.954-.005-1.73.753-1.737 1.694-.005.94.77 1.71 1.718 1.71.95 0 1.71-.76 1.71-1.7.01-.95-.75-1.71-1.68-1.71zM148.013 11.8c-.004-.78-.673-1.442-1.46-1.448-.803-.006-1.483.67-1.48 1.466.007.797.655 1.435 1.46 1.436.83 0 1.48-.645 1.48-1.456zM117.92 7.63c0 .73.572 1.306 1.303 1.307.74 0 1.316-.577 1.313-1.32-.003-.72-.577-1.283-1.305-1.28-.75 0-1.31.554-1.31 1.292zm13.698 30.2c.006-.61-.498-1.114-1.118-1.116-.637-.002-1.137.49-1.135 1.114.002.616.5 1.104 1.124 1.104.62 0 1.12-.487 1.12-1.103zm17.49-17.33c-.595-.004-1.11.51-1.107 1.102.01.585.5 1.066 1.1 1.067.63 0 1.09-.46 1.09-1.07 0-.61-.47-1.1-1.07-1.1zM122.95.07c-.525-.002-.93.397-.93.917 0 .516.41.918.934.915.51-.002.908-.406.908-.92 0-.517-.392-.91-.912-.912zm28.24 15.51c-.43-.006-.817.375-.822.807-.006.447.368.818.823.82.46 0 .81-.35.81-.8.01-.456-.35-.822-.81-.828zm-32.415 16.08c.002-.432-.372-.804-.813-.808-.448-.004-.816.37-.812.826.003.445.366.797.818.793.444 0 .806-.36.807-.81z"/>
  <path fill="#FFF" fill-rule="evenodd" d="M133.32 24.483c.002 1.505.973 2.834 2.35 3.286.69.22 1.4.33 2.123.36.516.02 1.03-.02 1.507-.25.374-.19.55-.5.534-.91-.017-.41-.202-.72-.6-.89-.137-.06-.276-.11-.423-.13-.43-.08-.87-.15-1.31-.23-.71-.15-1.02-.52-1.03-1.25 0-.64.17-1.24.37-1.84.36-1.09.85-2.13 1.32-3.18.45-1.01.93-2.02 1.24-3.088.18-.583.26-1.17.1-1.776-.24-.92-.79-1.537-1.75-1.714-.87-.16-1.74-.18-2.53.34-.26.17-.51.13-.74-.07-.17-.15-.34-.313-.51-.47-.81-.74-1.87-.78-2.74-.1-.35.275-.64.614-1.02.85-.34.21-.68.27-1.05.074-.35-.19-.72-.353-1.09-.52-.373-.17-.735-.376-1.16-.41-1.33-.115-2.723.67-3.31 1.87-.26.53-.47 1.08-.673 1.634-.93 2.56-1.69 5.18-2.474 7.785-.355 1.166.06 2.313 1.053 2.944.776.49 1.624.61 2.5.35.714-.215 1.1-.785 1.376-1.425.9-2.124 1.72-4.28 2.58-6.424.24-.59.47-1.18.72-1.76.253-.586.983-.79 1.42-.4.26.24.33.558.31.897-.03.36-.17.696-.3 1.03-.566 1.41-1.14 2.82-1.7 4.23-.11.284-.235.567-.285.87-.09.53.12.995.553 1.18.44.19.9.22 1.356.054.53-.19.85-.603 1.092-1.082l2.52-4.936c.39-.76.788-1.517 1.18-2.27.15-.28.32-.547.6-.72.25-.157.516-.17.77-.027.25.14.265.39.255.64-.006.13-.044.265-.096.39-.11.26-.21.52-.33.78-.7 1.46-1.41 2.92-2.105 4.386-.29.62-.596 1.246-.56 1.897z"/>
  <circle cx="134.5" cy="18.5" r="17.5" fill="none" stroke="#000" stroke-width="2"/>
</svg>
