<?xml version="1.0" standalone="no"?>
<!DOCTYPE svg PUBLIC "-//W3C//DTD SVG 20010904//EN"
 "http://www.w3.org/TR/2001/REC-SVG-20010904/DTD/svg10.dtd">
<svg version="1.0" xmlns="http://www.w3.org/2000/svg"
 width="301.000000pt" height="301.000000pt" viewBox="0 0 301.000000 301.000000"
 preserveAspectRatio="xMidYMid meet">
<metadata>
Created by potrace 1.11, written by Peter Selinger 2001-2013
</metadata>
<g transform="translate(0.000000,301.000000) scale(0.100000,-0.100000)"
fill="#000000" stroke="none">
<path d="M320 2970 c-38 -13 -67 -32 -96 -63 -23 -25 -55 -48 -71 -51 -42 -10
-103 -63 -124 -110 -18 -39 -19 -96 -19 -1271 0 -1177 1 -1232 19 -1270 23
-49 75 -99 120 -114 25 -8 373 -11 1263 -11 1341 0 1253 -4 1318 55 14 12 45
25 68 29 154 23 244 181 186 323 -19 47 -959 993 -986 993 -10 0 -18 -7 -18
-16 0 -9 212 -227 470 -486 259 -258 478 -484 486 -501 52 -99 -10 -236 -119
-262 l-27 -7 6 49 c3 27 0 70 -6 94 -10 40 -116 148 -1228 1263 -1007 1007
-1226 1222 -1267 1241 l-49 22 40 27 c24 16 62 29 92 33 95 11 58 43 869 -759
117 -115 218 -208 225 -206 6 2 14 10 16 17 2 7 -92 107 -209 223 -118 116
-332 327 -477 470 -184 182 -275 265 -305 278 -65 28 -115 31 -177 10z"/>
</g>
</svg>
